<mxfile host="app.diagrams.net" modified="2024-04-05T08:59:12.047Z" agent="Mozilla/5.0 (Windows NT 10.0; Win64; x64) AppleWebKit/537.36 (KHTML, like Gecko) Chrome/121.0.0.0 Safari/537.36" etag="d7gZFdn51lX-RGmBWiYd" version="24.2.1" type="device">
  <diagram id="C5RBs43oDa-KdzZeNtuy" name="Page-1">
    <mxGraphModel dx="1707" dy="453" grid="1" gridSize="10" guides="1" tooltips="1" connect="1" arrows="1" fold="1" page="1" pageScale="1" pageWidth="827" pageHeight="1169" math="0" shadow="0">
      <root>
        <mxCell id="WIyWlLk6GJQsqaUBKTNV-0" />
        <mxCell id="WIyWlLk6GJQsqaUBKTNV-1" parent="WIyWlLk6GJQsqaUBKTNV-0" />
        <mxCell id="WIyWlLk6GJQsqaUBKTNV-3" value="CHANGER CIRCUIT&lt;div&gt;(&lt;span style=&quot;font-size: 8px; background-color: initial;&quot;&gt;MCP73871)&lt;/span&gt;&lt;/div&gt;" style="rounded=1;whiteSpace=wrap;html=1;fontSize=12;glass=0;strokeWidth=1;shadow=0;" parent="WIyWlLk6GJQsqaUBKTNV-1" vertex="1">
          <mxGeometry x="360" y="376.93000000000006" width="120" height="40" as="geometry" />
        </mxCell>
        <mxCell id="QIfHNDquYOVF0DXRka1T-0" value="USB-TypeC&lt;div&gt;&lt;font style=&quot;font-size: 8px;&quot;&gt;5V&lt;/font&gt;&lt;/div&gt;" style="shape=parallelogram;perimeter=parallelogramPerimeter;whiteSpace=wrap;html=1;fixedSize=1;" parent="WIyWlLk6GJQsqaUBKTNV-1" vertex="1">
          <mxGeometry x="110" y="320" width="130" height="40" as="geometry" />
        </mxCell>
        <mxCell id="UtktVzxH-rWYwOBgYxzs-1" value="Li-Ion 3.7V&lt;div&gt;2x 3.4Ah&lt;/div&gt;&lt;div&gt;&lt;font style=&quot;font-size: 8px;&quot;&gt;(NCR18650B)&lt;/font&gt;&lt;/div&gt;" style="html=1;verticalLabelPosition=bottom;align=center;labelBackgroundColor=#ffffff;verticalAlign=top;strokeWidth=1;strokeColor=#000000;shadow=0;dashed=0;shape=mxgraph.ios7.icons.battery;fontFamily=Helvetica;fontSize=11;fontColor=default;rotation=0;direction=north;" parent="WIyWlLk6GJQsqaUBKTNV-1" vertex="1">
          <mxGeometry x="422.59" y="476" width="34.81" height="54" as="geometry" />
        </mxCell>
        <mxCell id="UtktVzxH-rWYwOBgYxzs-5" value="VBAT&amp;nbsp;&lt;div&gt;&lt;br&gt;&lt;/div&gt;" style="text;html=1;align=center;verticalAlign=middle;whiteSpace=wrap;rounded=0;rotation=-90;" parent="WIyWlLk6GJQsqaUBKTNV-1" vertex="1">
          <mxGeometry x="384.00000000000006" y="430" width="60" height="30" as="geometry" />
        </mxCell>
        <mxCell id="UtktVzxH-rWYwOBgYxzs-9" value="" style="pointerEvents=1;fillColor=strokeColor;verticalLabelPosition=bottom;shadow=0;dashed=0;align=center;html=1;verticalAlign=top;shape=mxgraph.electrical.diodes.diode;" parent="WIyWlLk6GJQsqaUBKTNV-1" vertex="1">
          <mxGeometry x="230" y="328" width="120" height="20" as="geometry" />
        </mxCell>
        <mxCell id="UtktVzxH-rWYwOBgYxzs-11" value="Solar Panel&lt;br&gt;6V-2W" style="shape=parallelogram;perimeter=parallelogramPerimeter;whiteSpace=wrap;html=1;fixedSize=1;" parent="WIyWlLk6GJQsqaUBKTNV-1" vertex="1">
          <mxGeometry x="-90" y="440" width="130" height="40" as="geometry" />
        </mxCell>
        <mxCell id="UtktVzxH-rWYwOBgYxzs-12" value="" style="pointerEvents=1;fillColor=strokeColor;verticalLabelPosition=bottom;shadow=0;dashed=0;align=center;html=1;verticalAlign=top;shape=mxgraph.electrical.diodes.diode;" parent="WIyWlLk6GJQsqaUBKTNV-1" vertex="1">
          <mxGeometry x="30" y="450" width="100" height="20" as="geometry" />
        </mxCell>
        <mxCell id="UtktVzxH-rWYwOBgYxzs-13" value="BUCK CIRCUIT&lt;div&gt;&lt;font style=&quot;font-size: 8px;&quot;&gt;(MT1470)&lt;/font&gt;&lt;/div&gt;" style="rounded=0;whiteSpace=wrap;html=1;" parent="WIyWlLk6GJQsqaUBKTNV-1" vertex="1">
          <mxGeometry x="130" y="440" width="100" height="40" as="geometry" />
        </mxCell>
        <mxCell id="UtktVzxH-rWYwOBgYxzs-14" value="" style="endArrow=classic;html=1;rounded=0;exitX=1;exitY=0.5;exitDx=0;exitDy=0;" parent="WIyWlLk6GJQsqaUBKTNV-1" source="UtktVzxH-rWYwOBgYxzs-13" edge="1">
          <mxGeometry width="50" height="50" relative="1" as="geometry">
            <mxPoint x="370" y="340" as="sourcePoint" />
            <mxPoint x="260" y="460" as="targetPoint" />
          </mxGeometry>
        </mxCell>
        <mxCell id="UtktVzxH-rWYwOBgYxzs-15" value="5V" style="text;html=1;align=center;verticalAlign=middle;whiteSpace=wrap;rounded=0;" parent="WIyWlLk6GJQsqaUBKTNV-1" vertex="1">
          <mxGeometry x="612.5" y="380" width="60" height="30" as="geometry" />
        </mxCell>
        <mxCell id="UtktVzxH-rWYwOBgYxzs-16" value="LDO CIRCUIT&lt;div&gt;&lt;font style=&quot;font-size: 8px;&quot;&gt;(MCP1700)&lt;/font&gt;&lt;/div&gt;" style="rounded=0;whiteSpace=wrap;html=1;" parent="WIyWlLk6GJQsqaUBKTNV-1" vertex="1">
          <mxGeometry x="640" y="430" width="80" height="67.84" as="geometry" />
        </mxCell>
        <mxCell id="UtktVzxH-rWYwOBgYxzs-22" value="3.3V" style="text;html=1;align=center;verticalAlign=middle;whiteSpace=wrap;rounded=0;" parent="WIyWlLk6GJQsqaUBKTNV-1" vertex="1">
          <mxGeometry x="710" y="440" width="70" height="30" as="geometry" />
        </mxCell>
        <mxCell id="UtktVzxH-rWYwOBgYxzs-28" value="MCU&lt;div&gt;&lt;font style=&quot;font-size: 8px;&quot;&gt;(PIC32MM0256GPM048)&lt;/font&gt;&lt;/div&gt;" style="rounded=1;whiteSpace=wrap;html=1;fontFamily=Helvetica;fontSize=11;fontColor=default;labelBackgroundColor=default;" parent="WIyWlLk6GJQsqaUBKTNV-1" vertex="1">
          <mxGeometry x="915" y="420" width="120" height="80" as="geometry" />
        </mxCell>
        <mxCell id="UtktVzxH-rWYwOBgYxzs-50" value="" style="edgeStyle=orthogonalEdgeStyle;rounded=0;orthogonalLoop=1;jettySize=auto;html=1;" parent="WIyWlLk6GJQsqaUBKTNV-1" source="UtktVzxH-rWYwOBgYxzs-32" target="UtktVzxH-rWYwOBgYxzs-49" edge="1">
          <mxGeometry relative="1" as="geometry" />
        </mxCell>
        <mxCell id="UtktVzxH-rWYwOBgYxzs-32" value="BUCK-BOOST CIRCUIT&lt;div&gt;&lt;font style=&quot;font-size: 8px;&quot;&gt;(TPS63070)&lt;/font&gt;&lt;/div&gt;" style="rounded=0;whiteSpace=wrap;html=1;" parent="WIyWlLk6GJQsqaUBKTNV-1" vertex="1">
          <mxGeometry x="640" y="310" width="80" height="60" as="geometry" />
        </mxCell>
        <mxCell id="UtktVzxH-rWYwOBgYxzs-44" value="&lt;span style=&quot;color: rgb(0, 0, 0); font-family: Helvetica; font-size: 10px; font-style: normal; font-variant-ligatures: normal; font-variant-caps: normal; font-weight: 400; letter-spacing: normal; orphans: 2; text-align: center; text-indent: 0px; text-transform: none; widows: 2; word-spacing: 0px; -webkit-text-stroke-width: 0px; white-space: normal; background-color: rgb(251, 251, 251); text-decoration-thickness: initial; text-decoration-style: initial; text-decoration-color: initial; display: inline !important; float: none;&quot;&gt;BOOST(VBAT тнб 3,7V)&lt;/span&gt;" style="text;whiteSpace=wrap;html=1;" parent="WIyWlLk6GJQsqaUBKTNV-1" vertex="1">
          <mxGeometry x="750" y="255.00000000000003" width="110" height="40" as="geometry" />
        </mxCell>
        <mxCell id="UtktVzxH-rWYwOBgYxzs-47" value="" style="endArrow=classic;html=1;rounded=0;entryX=0;entryY=0.5;entryDx=0;entryDy=0;" parent="WIyWlLk6GJQsqaUBKTNV-1" target="UtktVzxH-rWYwOBgYxzs-28" edge="1">
          <mxGeometry width="50" height="50" relative="1" as="geometry">
            <mxPoint x="720" y="460" as="sourcePoint" />
            <mxPoint x="590" y="370" as="targetPoint" />
          </mxGeometry>
        </mxCell>
        <mxCell id="UtktVzxH-rWYwOBgYxzs-49" value="" style="shape=partialRectangle;whiteSpace=wrap;html=1;bottom=1;right=1;left=1;top=0;fillColor=none;routingCenterX=-0.5;rotation=90;" parent="WIyWlLk6GJQsqaUBKTNV-1" vertex="1">
          <mxGeometry x="735" y="295" width="120" height="90" as="geometry" />
        </mxCell>
        <mxCell id="UtktVzxH-rWYwOBgYxzs-51" value="&lt;span style=&quot;color: rgb(0, 0, 0); font-family: Helvetica; font-size: 10px; font-style: normal; font-variant-ligatures: normal; font-variant-caps: normal; font-weight: 400; letter-spacing: normal; orphans: 2; text-align: center; text-indent: 0px; text-transform: none; widows: 2; word-spacing: 0px; -webkit-text-stroke-width: 0px; white-space: normal; background-color: rgb(251, 251, 251); text-decoration-thickness: initial; text-decoration-style: initial; text-decoration-color: initial; display: inline !important; float: none;&quot;&gt;BUCK(VBAT тнг 3.7V)&lt;/span&gt;" style="text;whiteSpace=wrap;html=1;" parent="WIyWlLk6GJQsqaUBKTNV-1" vertex="1">
          <mxGeometry x="750" y="370" width="110" height="40" as="geometry" />
        </mxCell>
        <mxCell id="UtktVzxH-rWYwOBgYxzs-57" value="3.7V" style="text;html=1;align=center;verticalAlign=middle;resizable=0;points=[];autosize=1;strokeColor=none;fillColor=none;" parent="WIyWlLk6GJQsqaUBKTNV-1" vertex="1">
          <mxGeometry x="865" y="318" width="50" height="30" as="geometry" />
        </mxCell>
        <mxCell id="UtktVzxH-rWYwOBgYxzs-59" value="" style="endArrow=classic;html=1;rounded=0;entryX=1.08;entryY=1.033;entryDx=0;entryDy=0;entryPerimeter=0;" parent="WIyWlLk6GJQsqaUBKTNV-1" edge="1">
          <mxGeometry width="50" height="50" relative="1" as="geometry">
            <mxPoint x="860" y="339" as="sourcePoint" />
            <mxPoint x="915" y="339.49" as="targetPoint" />
          </mxGeometry>
        </mxCell>
        <mxCell id="UtktVzxH-rWYwOBgYxzs-60" value="NB MODULE&lt;div&gt;&lt;font style=&quot;font-size: 8px;&quot;&gt;(ME310G1)&lt;/font&gt;&lt;/div&gt;" style="rounded=1;whiteSpace=wrap;html=1;fontFamily=Helvetica;fontSize=11;fontColor=default;labelBackgroundColor=default;" parent="WIyWlLk6GJQsqaUBKTNV-1" vertex="1">
          <mxGeometry x="915" y="300" width="120" height="80" as="geometry" />
        </mxCell>
        <mxCell id="UtktVzxH-rWYwOBgYxzs-61" value="" style="endArrow=classic;html=1;rounded=0;exitX=0.25;exitY=0;exitDx=0;exitDy=0;entryX=0.25;entryY=1;entryDx=0;entryDy=0;" parent="WIyWlLk6GJQsqaUBKTNV-1" source="UtktVzxH-rWYwOBgYxzs-28" target="UtktVzxH-rWYwOBgYxzs-60" edge="1">
          <mxGeometry width="50" height="50" relative="1" as="geometry">
            <mxPoint x="610" y="440" as="sourcePoint" />
            <mxPoint x="660" y="390" as="targetPoint" />
          </mxGeometry>
        </mxCell>
        <mxCell id="UtktVzxH-rWYwOBgYxzs-62" value="" style="endArrow=classic;html=1;rounded=0;entryX=0.5;entryY=0;entryDx=0;entryDy=0;exitX=0.5;exitY=1;exitDx=0;exitDy=0;" parent="WIyWlLk6GJQsqaUBKTNV-1" source="UtktVzxH-rWYwOBgYxzs-60" target="UtktVzxH-rWYwOBgYxzs-28" edge="1">
          <mxGeometry width="50" height="50" relative="1" as="geometry">
            <mxPoint x="610" y="440" as="sourcePoint" />
            <mxPoint x="660" y="390" as="targetPoint" />
          </mxGeometry>
        </mxCell>
        <mxCell id="UtktVzxH-rWYwOBgYxzs-66" value="logic voltage&lt;div&gt;(1.8V)&lt;/div&gt;" style="text;html=1;align=center;verticalAlign=middle;resizable=0;points=[];autosize=1;strokeColor=none;fillColor=none;" parent="WIyWlLk6GJQsqaUBKTNV-1" vertex="1">
          <mxGeometry x="860" y="380" width="90" height="40" as="geometry" />
        </mxCell>
        <mxCell id="UtktVzxH-rWYwOBgYxzs-68" value="Flash Memory&lt;div&gt;&lt;font style=&quot;font-size: 8px;&quot;&gt;(SST25VF016B)&lt;/font&gt;&lt;/div&gt;" style="sketch=0;html=1;aspect=fixed;strokeColor=none;shadow=0;fillColor=#000000;verticalAlign=top;labelPosition=center;verticalLabelPosition=bottom;shape=mxgraph.gcp2.memory_card;fontFamily=Helvetica;fontSize=11;fontColor=default;labelBackgroundColor=default;" parent="WIyWlLk6GJQsqaUBKTNV-1" vertex="1">
          <mxGeometry x="948" y="540" width="27.9" height="30" as="geometry" />
        </mxCell>
        <mxCell id="UtktVzxH-rWYwOBgYxzs-69" value="" style="endArrow=classic;html=1;rounded=0;exitX=0.433;exitY=1.013;exitDx=0;exitDy=0;entryX=0.65;entryY=0.023;entryDx=0;entryDy=0;entryPerimeter=0;exitPerimeter=0;" parent="WIyWlLk6GJQsqaUBKTNV-1" source="UtktVzxH-rWYwOBgYxzs-28" target="UtktVzxH-rWYwOBgYxzs-68" edge="1">
          <mxGeometry width="50" height="50" relative="1" as="geometry">
            <mxPoint x="650" y="440" as="sourcePoint" />
            <mxPoint x="700" y="390" as="targetPoint" />
          </mxGeometry>
        </mxCell>
        <mxCell id="UtktVzxH-rWYwOBgYxzs-70" value="SPI" style="text;html=1;align=center;verticalAlign=middle;whiteSpace=wrap;rounded=0;" parent="WIyWlLk6GJQsqaUBKTNV-1" vertex="1">
          <mxGeometry x="954" y="500" width="60" height="30" as="geometry" />
        </mxCell>
        <mxCell id="UtktVzxH-rWYwOBgYxzs-71" value="&lt;font style=&quot;font-size: 12px;&quot;&gt;UART&lt;/font&gt;" style="text;html=1;align=center;verticalAlign=middle;whiteSpace=wrap;rounded=0;" parent="WIyWlLk6GJQsqaUBKTNV-1" vertex="1">
          <mxGeometry x="980" y="391.89" width="60" height="30" as="geometry" />
        </mxCell>
        <mxCell id="UtktVzxH-rWYwOBgYxzs-72" value="GPS&lt;div&gt;&lt;font style=&quot;font-size: 9px;&quot;&gt;(1575R-A&amp;nbsp;)&lt;/font&gt;&lt;/div&gt;" style="verticalLabelPosition=top;shadow=0;dashed=0;align=center;html=1;verticalAlign=bottom;shape=mxgraph.electrical.radio.aerial_-_antenna_1;fontFamily=Helvetica;fontSize=11;fontColor=default;labelBackgroundColor=default;labelPosition=center;" parent="WIyWlLk6GJQsqaUBKTNV-1" vertex="1">
          <mxGeometry x="920" y="230" width="40" height="70" as="geometry" />
        </mxCell>
        <mxCell id="UtktVzxH-rWYwOBgYxzs-75" value="CELL&lt;div&gt;&lt;font style=&quot;font-size: 9px;&quot;&gt;(AH3G.303 )&lt;/font&gt;&lt;/div&gt;" style="verticalLabelPosition=top;shadow=0;dashed=0;align=center;html=1;verticalAlign=bottom;shape=mxgraph.electrical.radio.aerial_-_antenna_1;fontFamily=Helvetica;fontSize=11;fontColor=default;labelBackgroundColor=default;labelPosition=center;" parent="WIyWlLk6GJQsqaUBKTNV-1" vertex="1">
          <mxGeometry x="980" y="230" width="40" height="70" as="geometry" />
        </mxCell>
        <mxCell id="UtktVzxH-rWYwOBgYxzs-78" value="BUTTONS,LEDS&lt;div&gt;&amp;amp; INDICATORS&lt;/div&gt;" style="rounded=1;whiteSpace=wrap;html=1;fontFamily=Helvetica;fontSize=11;fontColor=default;labelBackgroundColor=default;" parent="WIyWlLk6GJQsqaUBKTNV-1" vertex="1">
          <mxGeometry x="793" y="540" width="127" height="40" as="geometry" />
        </mxCell>
        <mxCell id="UtktVzxH-rWYwOBgYxzs-79" value="" style="endArrow=classic;html=1;rounded=0;" parent="WIyWlLk6GJQsqaUBKTNV-1" edge="1">
          <mxGeometry width="50" height="50" relative="1" as="geometry">
            <mxPoint x="870" y="480" as="sourcePoint" />
            <mxPoint x="870" y="540" as="targetPoint" />
          </mxGeometry>
        </mxCell>
        <mxCell id="UtktVzxH-rWYwOBgYxzs-80" value="" style="endArrow=none;html=1;rounded=0;entryX=0;entryY=0.75;entryDx=0;entryDy=0;" parent="WIyWlLk6GJQsqaUBKTNV-1" target="UtktVzxH-rWYwOBgYxzs-28" edge="1">
          <mxGeometry width="50" height="50" relative="1" as="geometry">
            <mxPoint x="870" y="480" as="sourcePoint" />
            <mxPoint x="770" y="420" as="targetPoint" />
            <Array as="points">
              <mxPoint x="890" y="480" />
            </Array>
          </mxGeometry>
        </mxCell>
        <mxCell id="UtktVzxH-rWYwOBgYxzs-81" value="GPIO" style="text;html=1;align=center;verticalAlign=middle;whiteSpace=wrap;rounded=0;" parent="WIyWlLk6GJQsqaUBKTNV-1" vertex="1">
          <mxGeometry x="820" y="485" width="60" height="30" as="geometry" />
        </mxCell>
        <mxCell id="UtktVzxH-rWYwOBgYxzs-82" value="Wind direction sensor&lt;div&gt;(&lt;font style=&quot;font-size: 8px;&quot;&gt;AS5600&lt;/font&gt;)&lt;/div&gt;" style="rounded=1;whiteSpace=wrap;html=1;" parent="WIyWlLk6GJQsqaUBKTNV-1" vertex="1">
          <mxGeometry x="1140" y="710" width="140" height="60" as="geometry" />
        </mxCell>
        <mxCell id="UtktVzxH-rWYwOBgYxzs-83" value="&lt;div&gt;Temperature&lt;/div&gt;&lt;div&gt;&amp;amp; Humidity Sensor&lt;/div&gt;&lt;div&gt;(&lt;font style=&quot;font-size: 8px;&quot;&gt;SHT40I-AD1B-R3&lt;/font&gt;&lt;font style=&quot;font-size: 8px;&quot;&gt;)&lt;/font&gt;&lt;/div&gt;" style="rounded=1;whiteSpace=wrap;html=1;" parent="WIyWlLk6GJQsqaUBKTNV-1" vertex="1">
          <mxGeometry x="1142.38" y="440" width="140" height="56" as="geometry" />
        </mxCell>
        <mxCell id="UtktVzxH-rWYwOBgYxzs-84" value="Pressure sensors&lt;div&gt;(&lt;font style=&quot;font-size: 8px;&quot;&gt;BM1383AGLV-ZE2&lt;/font&gt;)&lt;/div&gt;" style="rounded=1;whiteSpace=wrap;html=1;" parent="WIyWlLk6GJQsqaUBKTNV-1" vertex="1">
          <mxGeometry x="1142.3799999999999" y="500" width="140" height="60" as="geometry" />
        </mxCell>
        <mxCell id="UtktVzxH-rWYwOBgYxzs-86" value="Rainfall Sensor&lt;div&gt;&lt;font style=&quot;font-size: 8px;&quot;&gt;(HMC5883L&lt;/font&gt;)&lt;/div&gt;" style="rounded=1;whiteSpace=wrap;html=1;" parent="WIyWlLk6GJQsqaUBKTNV-1" vertex="1">
          <mxGeometry x="1142.38" y="636.53" width="137.62" height="61.47" as="geometry" />
        </mxCell>
        <mxCell id="UtktVzxH-rWYwOBgYxzs-92" value="I2C" style="text;html=1;align=center;verticalAlign=middle;whiteSpace=wrap;rounded=0;" parent="WIyWlLk6GJQsqaUBKTNV-1" vertex="1">
          <mxGeometry x="1060" y="570" width="60" height="30" as="geometry" />
        </mxCell>
        <mxCell id="UtktVzxH-rWYwOBgYxzs-93" value="" style="endArrow=none;html=1;rounded=0;exitX=1;exitY=0.75;exitDx=0;exitDy=0;" parent="WIyWlLk6GJQsqaUBKTNV-1" source="UtktVzxH-rWYwOBgYxzs-28" edge="1">
          <mxGeometry width="50" height="50" relative="1" as="geometry">
            <mxPoint x="970" y="680" as="sourcePoint" />
            <mxPoint x="1060" y="480" as="targetPoint" />
          </mxGeometry>
        </mxCell>
        <mxCell id="UtktVzxH-rWYwOBgYxzs-97" value="" style="endArrow=none;html=1;rounded=0;" parent="WIyWlLk6GJQsqaUBKTNV-1" edge="1">
          <mxGeometry width="50" height="50" relative="1" as="geometry">
            <mxPoint x="1060" y="600" as="sourcePoint" />
            <mxPoint x="1060" y="480" as="targetPoint" />
          </mxGeometry>
        </mxCell>
        <mxCell id="UtktVzxH-rWYwOBgYxzs-98" value="" style="endArrow=classic;html=1;rounded=0;" parent="WIyWlLk6GJQsqaUBKTNV-1" source="UtktVzxH-rWYwOBgYxzs-91" edge="1">
          <mxGeometry width="50" height="50" relative="1" as="geometry">
            <mxPoint x="1060" y="600" as="sourcePoint" />
            <mxPoint x="1110" y="600" as="targetPoint" />
            <Array as="points">
              <mxPoint x="1090" y="600" />
            </Array>
          </mxGeometry>
        </mxCell>
        <mxCell id="UtktVzxH-rWYwOBgYxzs-100" value="" style="endArrow=classic;html=1;rounded=0;" parent="WIyWlLk6GJQsqaUBKTNV-1" target="UtktVzxH-rWYwOBgYxzs-91" edge="1">
          <mxGeometry width="50" height="50" relative="1" as="geometry">
            <mxPoint x="1060" y="600" as="sourcePoint" />
            <mxPoint x="1110" y="600" as="targetPoint" />
            <Array as="points" />
          </mxGeometry>
        </mxCell>
        <mxCell id="UtktVzxH-rWYwOBgYxzs-91" value="" style="shape=curlyBracket;whiteSpace=wrap;html=1;rounded=1;labelPosition=left;verticalLabelPosition=middle;align=right;verticalAlign=middle;" parent="WIyWlLk6GJQsqaUBKTNV-1" vertex="1">
          <mxGeometry x="1110" y="485" width="30" height="230" as="geometry" />
        </mxCell>
        <mxCell id="UtktVzxH-rWYwOBgYxzs-102" value="Dust sensor&lt;div&gt;(&lt;font style=&quot;font-size: 8px;&quot;&gt;GP2Y1010AU0F&lt;/font&gt;)&lt;/div&gt;" style="rounded=1;whiteSpace=wrap;html=1;" parent="WIyWlLk6GJQsqaUBKTNV-1" vertex="1">
          <mxGeometry x="1330" y="309.90000000000003" width="120" height="60.21" as="geometry" />
        </mxCell>
        <mxCell id="UtktVzxH-rWYwOBgYxzs-105" value="" style="endArrow=none;html=1;rounded=0;" parent="WIyWlLk6GJQsqaUBKTNV-1" edge="1">
          <mxGeometry width="50" height="50" relative="1" as="geometry">
            <mxPoint x="1060" y="340" as="sourcePoint" />
            <mxPoint x="1060" y="440" as="targetPoint" />
            <Array as="points">
              <mxPoint x="1060" y="390" />
            </Array>
          </mxGeometry>
        </mxCell>
        <mxCell id="UtktVzxH-rWYwOBgYxzs-106" value="" style="endArrow=classic;html=1;rounded=0;" parent="WIyWlLk6GJQsqaUBKTNV-1" edge="1">
          <mxGeometry width="50" height="50" relative="1" as="geometry">
            <mxPoint x="1060" y="340" as="sourcePoint" />
            <mxPoint x="1140" y="340" as="targetPoint" />
          </mxGeometry>
        </mxCell>
        <mxCell id="UtktVzxH-rWYwOBgYxzs-107" value="ANALOG" style="text;html=1;align=center;verticalAlign=middle;whiteSpace=wrap;rounded=0;" parent="WIyWlLk6GJQsqaUBKTNV-1" vertex="1">
          <mxGeometry x="1060" y="317.99999999999994" width="60" height="30" as="geometry" />
        </mxCell>
        <mxCell id="UtktVzxH-rWYwOBgYxzs-109" value="&lt;div&gt;Wind speed sensor&lt;br&gt;&lt;/div&gt;&lt;div&gt;(&lt;font style=&quot;font-size: 8px;&quot;&gt;Hall effect sensor&lt;/font&gt;)&lt;br&gt;&lt;/div&gt;" style="rounded=1;whiteSpace=wrap;html=1;arcSize=18;" parent="WIyWlLk6GJQsqaUBKTNV-1" vertex="1">
          <mxGeometry x="1140" y="570" width="137.62" height="60" as="geometry" />
        </mxCell>
        <mxCell id="UtktVzxH-rWYwOBgYxzs-110" value="BOOST CIRCUIT&lt;div&gt;&lt;font style=&quot;font-size: 8px;&quot;&gt;(MT3608L)&lt;/font&gt;&lt;/div&gt;" style="rounded=0;whiteSpace=wrap;html=1;" parent="WIyWlLk6GJQsqaUBKTNV-1" vertex="1">
          <mxGeometry x="1140" y="320" width="140" height="40" as="geometry" />
        </mxCell>
        <mxCell id="UtktVzxH-rWYwOBgYxzs-112" value="" style="endArrow=none;html=1;rounded=0;exitX=1;exitY=0.25;exitDx=0;exitDy=0;" parent="WIyWlLk6GJQsqaUBKTNV-1" source="UtktVzxH-rWYwOBgYxzs-28" edge="1">
          <mxGeometry width="50" height="50" relative="1" as="geometry">
            <mxPoint x="960" y="530" as="sourcePoint" />
            <mxPoint x="1060" y="440" as="targetPoint" />
          </mxGeometry>
        </mxCell>
        <mxCell id="UtktVzxH-rWYwOBgYxzs-113" value="3.3V" style="text;html=1;align=center;verticalAlign=middle;whiteSpace=wrap;rounded=0;" parent="WIyWlLk6GJQsqaUBKTNV-1" vertex="1">
          <mxGeometry x="1040" y="340" width="70" height="30" as="geometry" />
        </mxCell>
        <mxCell id="UtktVzxH-rWYwOBgYxzs-115" value="&lt;span style=&quot;color: rgb(0, 0, 0); font-family: Helvetica; font-size: 12px; font-style: normal; font-variant-ligatures: normal; font-variant-caps: normal; font-weight: 400; letter-spacing: normal; orphans: 2; text-align: center; text-indent: 0px; text-transform: none; widows: 2; word-spacing: 0px; -webkit-text-stroke-width: 0px; white-space: normal; background-color: rgb(251, 251, 251); text-decoration-thickness: initial; text-decoration-style: initial; text-decoration-color: initial; display: inline !important; float: none;&quot;&gt;5V&lt;/span&gt;" style="text;whiteSpace=wrap;html=1;" parent="WIyWlLk6GJQsqaUBKTNV-1" vertex="1">
          <mxGeometry x="1290" y="318" width="60" height="40" as="geometry" />
        </mxCell>
        <mxCell id="UtktVzxH-rWYwOBgYxzs-116" value="" style="endArrow=classic;html=1;rounded=0;exitX=1;exitY=0.5;exitDx=0;exitDy=0;entryX=0;entryY=0.5;entryDx=0;entryDy=0;" parent="WIyWlLk6GJQsqaUBKTNV-1" source="UtktVzxH-rWYwOBgYxzs-110" target="UtktVzxH-rWYwOBgYxzs-102" edge="1">
          <mxGeometry width="50" height="50" relative="1" as="geometry">
            <mxPoint x="940" y="440" as="sourcePoint" />
            <mxPoint x="990" y="390" as="targetPoint" />
          </mxGeometry>
        </mxCell>
        <mxCell id="UtktVzxH-rWYwOBgYxzs-119" value="" style="shape=image;verticalLabelPosition=bottom;labelBackgroundColor=default;verticalAlign=top;aspect=fixed;imageAspect=0;image=data:image/png,iVBORw0KGgoAAAANSUhEUgAAAKMAAABzCAYAAAD0UrKvAAAAAXNSR0IArs4c6QAAAARnQU1BAACxjwv8YQUAAAAJcEhZcwAADsMAAA7DAcdvqGQAADb4SURBVHhe7Z3pmx3Hdd7PvXNnxb4QC3dzFSmJiyRTtEVLlGUrVJjYjhzH2Z48+Y/yJB/yIfmS5C/Ik/iJlyRO7MRxZEWiSHAnsRHEDgxmMOudu+X9nVPnds/lAKBEcQYY4gVqqrr27nr7nDrV1X0bS4vXBnYXd3EboFn8u7iLLcddyfg54OzZc/baz47ZkSNHrd/vu3v2madsenq65LiLjXBLMv7Pv/g/7r/8nV93/xfF7VBPp9OVW7Pl5WW7cOGKLS4t2fTUlDXHmtZsNO3Bh+61QX9gq6srujJN6yp/f9C31tiYTc/MWK/bsx07Zmx8fNy6Cne7HVtaXrXLl6/YpUtXhn364z/577a21rXJyXG7fv26k3Hvnt32yiu/5ek3wna61qP4NHXdUWqaQW00GiJB1+bnr7vr9Xol9ZNYXl6xuWtzduzYm/baT39qf/3X/9fDH3zwocq1bWZmzMZaPRtrDtw/ffqknfv4I5u/dsXmZy/ZwvysLS/M2/W5K/bxmY+Vftreeutte+ONY/bmm2/aO++8q7pO2Pnzl70t+vL++x/a009/xZ555hl74okn7Pnnn7fnnnvOpqZn7OrsbOnZXWyEO0pNnzt/UUR4U9KtI6kz5RJqIMn18ne+Zc1m08l64fwFm1+Ys9nZed1p4zY51bTWuCSf0ltjE5KCURfHg8Fg6AOI3lR9ivDjBOk9aym9unfzxlht95TeUHuXbd++A/bAAw/aPffcYwsLC5KKc14Wd/LkSXvttZ/a33n1B/bwww+WWu6ijjuGjKjW//xHf2w7du51EkxOQI6G1GpX0uotqdFpu+++I/bIg/fZ1HjLJOpEoHER8saSsw7quhGSrAnRzxoWrF5cWpVaX5WUnrfvfvd7tmfvXltYXLDjx4/bTyWNZ6Te7zmwX/kW7MqVy3ZA4V07d9nXv/Z13VATXsddBO4IMjLYf/pnfy6196Tde98DtrKyojnZmhOo22nbT37yE6nMt2znjmn73svfEgE0D2y2rC8xKA3s2IhskOxmJEyMkrFPkUFIyZWVNVvS3PPI0fvs8ccftzHNL//rf/tz+8u//Av78Y9/ap21VXvppV+3F154wS5eOGe7du+WZO9JOj4go+aryn93QSNxR1yJN469pbnX13zuhUXaarVcvTLwUrSai83Z4uKi9WVwXJN6brc7UqNdlZTKvQmSiDci5KdJR7rt3LnTpiYmbX5uXtLvim6Qjh2VJf3b3/st+1vf/4E99tgTduTQUcXdZ3t27ZWkPGSXLsxKdX/kU467CNz2khGpeG1uyR566CEn32uv/8zePPa2nTt7VobMmv3u7/3QSXHm9Ae2LPU40RqTqtyl+ds+2OISciN8WqmYQDUnQtrGfTzQPJI5IzfH+MSU3yhIbazo8fFJka3tc9umFDvzTNBut3Vea+pfU/PLPfbIIw95/Bcdt71k/NHfvGYHDx508ly8eNH+7I/+k/3Jf/mP9sbrUs1vv2mzVy/beKtpR5TnyMF9UoM7bGJ8yiXmKBEhXxLw5yHiKLIer6Mva7wByXrW6666a42b7du/y2Z2tGzvnhmbmsSIMms1+zKg+rKsx2y34qfln9VNhXFzF7qut7NkRJK8cexdXyKZmJhwMp744D2p4qu+vLMqtXzvvffao48+au3la9Ztr1pDoz7WktUsSTUkzAhSKo7OBW+GumQck5QbSsZBz+sifaDJ5NSUbgQls8yjLpDBz8OlYq9vXVnrfcUNmHP2B7aytCjjZ9a+8uxzduiew17nFxW3NRnn5ubszJmPbf/+/a7+GM9ut+0Dy2A3nAiSOlLNHEOun1f9gjo5UadZviupB6mZf3Z1lQhDsIZIlGSskxQLmzyAusYaLAlFn/piKD5wcnYlSelzr21Li/O2sLRszz73DTt8+Kjn+SIirtxtirm56y5p4Eav15U/8PkXUpJ4jJmpqUnPC4EgAvNKwhu5G6Gepy/ydMSZNRFu0JCB1JCqb8k6lw8JByKRl1FOdcelZL3+lIJOQN084rM7pOBAknFAmkjoBpZcvycDRmq+2ehpLvwzW1iY93q+iLhtycgC98VLV0PtaWBjsIuUKQOOQ7qAVMsgyZHHiRvFAySYL9lonrkidT+/sGCz167b9YUlm5tfUjt9qdMFSeYwQm4E+jd0yiqvuNJ31QM7ker9gYwYpK91bVLSvb+2bO++/ZatrCyX2r5YuC3JuLgoAogIR48eDku0RjSQYQb3VrgRAetxTkKB+s6eP++PDU+fOiNSrtnKateuzy/KX7P56wtKv+DPnVG7SNFUw1k+fRxpSNOGWNnQMQR0aSjX60siDqhn1c+vNSYl3xrY3NWz9vrPfuL1fNFw25GRZZETJ07K4pz0x3gaMR8sHN29EbkSN0tfH5/1jamJJq044U4cP2XdTt+efPJJl8oxF+3b0tKKdXoNO6057PmLl21ZeaVch8RL1Tzq+iIgRg4EdCdp6KrZpeKaq3rmqUwvJmR4jWtuvDh32S5dvBDd/ALhtjJgIOKFSxd9/XBqaiZIqNGKR288+pPfYEE7Bh4pA7k4Bh63gV9HFVc9kxbHbHZ2VlLvnHVWe/bMM8/ZI4884gvpq2tt9UtGk/qARDx98gM7e/aM7d692x577DHFSuo144bJR4TUO2xHfdQfRaKWUdNByJCQSEqCytts+AI46avttrXXBnbg0H32wouffcfMnYLbioyvv/66TU5O+qI1BoMPcJFmObj4FfncK4NfJJOUYxUnktTOjuP0Bxp896Wj+1Kls7Nz/ljvmy++aPsO7Fec+S6dSxevePv0C6v+ytVLdub0KVtaXrCDBw/Yvl0znp6GU7YBvE8inLfDBLJIR56nR/p6iapZsPdlrd0T8Xu2srxqjz7xtD391Wc8/3bHbaOmL1+65DtxeLQG6kSsg2OXmHIQAMeyz9Bvjg/LbVQe1OMI+5rl6rJLu92797qkmpu9Zv/h3/17+5f/6l/Yv/m3/9reeusNm56asH17lGfXDqnUlvXay06mdKj06rjjRET6hQQMSVgnK1jflziviYlxXYtxm56ZspMn3rWrV6+UHNsbtwUZl5YW7fKVq7Zr104nlS+jjBBpNPxJQo4PCTne0nxTfjqvU3mzzqyrqlMq8cABO3z4HltcuG6XL16yP/3jP7H//b/+h106f8aWF6/ZysI1m718zhbnL8ruWLKdk2Y7JtS+JDGuIfI1ZZDghxMh3UCRJDQRE+OloXzNMsWoYdgnFsLl4txMxltD52L24x/9hf3Nj/6q5N6+uKWa/rx3DX/88cc+X+ORH6RhUJI4AH908EAMYNxLhJFGYKiuUXtOjhIuEivyRH2RL+ZqhL2tflM3B3sR5+3ChTMq09W0YaftmNrh+SAJdvTk+IRNu5E1bc3W2LB81gt62NMKM1UYmEhJHsLu6n3ASXiWeHcq67vJ1eZaR3PM5pSMqmfswYd/xcvdDHd3ev8CYMMAu1xQjyzhBMGKtGqEYYC/zhVk3lGnlMggYFBk/CjB6y5uApFBZO322tYcG9iePTN2/72H7cihA7ZrWsSbMJuZGrOdM5O+RW18POrG8Mg6R0H3c84KCXE3ghcv58ziPmB7Ga9E0L9Bt+M70XNddTtiywwYt5wvXJLVuCT1vMt3YeeAul8jHkhJkhYrA8QRSGmSYZDzM9b2Mh2ypZ/3YSy7hNQkzTc7yKId9Dq+V7IvEvQHqN2QfH3mdWOo/nE6KpK3JCcVp64g2aLO0tfStlIUmeGQgpkHP8PqRTku6VLZSPdeR/NRzWNXVjv2+Jefs3vvPWpTU9vv5a4tI+N7773ni7w7d+x1qeUueOZIiVKhkEcEgBR1SVQf0AyPxjkBnYR4DHpldScRPSzV6HM9xaGieUKCgTMQIV1y0bZL3JS6tU5DOiHapU6mD5XlXLf0b+SnW3fck5JXvzqysBdW2nbvfQ/b13/1Bc+znbAlavqKrEMu8o4dkogyMFyFFnX3aVEnI6gfB0lG06s8o2l1DG+M4pDAYQhNuKXuTlIx0zdqq46btXmjcp+IVzveh/Gm5qotO3H8Xc21T5fE7YNNJ+OaJuSzV6/55tdQtXHxeVUU/0YDBDL9VnnWYTjXDMd8LBz5RuMkhTy/2lDXIBviuqF+QsBWa0r+pOK5gbD4UzrevE+JzDOatx6/kUMb0K9mq2ETsuD3791lx954zefb2wmbSkZ2bX94/Lg/ZuMiI2VSutSRg5DI47obxahqA+vzRbhKLyq3loew98eNiAhzw4wxRxT5cM0RAo66rOdmbjRPHfXjKj36Sn8w9OhTR8Yf2+u2EzaVjBcuXpR0GfP3RoKEt25+dLB+YdykmmzD/TIvpH91S9mf2KTjuLhRrKurYDTsRlhZU0wX89CNy4xRRo5cLpHLNOHUieMlx/bArdnwS8Ti0mK8uaexqK8R1i98HaODEwSOuJR+nwmpwiEgFhNhtZEk87751yZom34SpyyocM6hSNB02b9R/0Zu2EbtGNTjcFwpiOh5REYmF9aa9Gf42wmbSsZxzbdwLg1kW4YrgAhDyJLVdU8Xm1xZav75AGHhWLpQdzE3dKRkEnyg8SnjoQpIw4Tny3Jyw3IjPpY0iHmlmOt0KhJxA/jNRX0lD8/Msw1/RUGQfe5WPnl8ijO+w+O3Cza+Mp8Tqicdpdl1BNwYDG4O8M+DuuQknMf18EaotzUavpkbxWhc5AtiblSufoy/TqpKGrpFJVKyxOPrjmtde/qpJz3/dsGmkpGX7+OdZtbgdG371TYulwJDRDgHBwwHphb3aXAz4t0M9fY2cnVslP6LuKxrFD3WK63l+ym5fr3ewB5/8kl77LFHSo7tgU0l48O/8qAtLy+JjJ8kmmMdIQM3G6SfF6PE3EhKcjzaJv5GpCYe2Z4OdV6fXpCedawH51m5VOO4UO+jvupDPUuj8CRm15499sijv+KW9XbCpj+BuTY3Z5cvX7WdO3f5i1U5E6yPmRsT+IpEXUHSUUJkuO6PhnH5SC6kcfUEJJ0f156MDOPkO9m4c0DxR/PUw0w7Ms6JWDZpZHq60eObudyWhhU9v7BiL/zaS7ZHZNyO4HbcVOzbu9eOHjlsV69e9Y85BUmCLBmWtRKDKQfST3ieml8HcfX0+nEdG8XdDKN9uBHq/d4Imb5Rvuwr16Hb7frze1x7ddm/asa3JbcrEcGmkxGwb/HBB+7zbfwaAt+YoGHSQDAgCCGpp5o16cDYwRJWBmLqLuLYrlA5JCL+jbCOCNlOkcAAH2Lk8Y3IG8YYxKJ8sZbTCa6y1ZOY90Xvsq5My/SeynQkpP3G7PEKAu+IL+tarFinPWcrCxft44/PeNntiC197YCPfV6dveSfjasv+jZ5BKcwKpr1vXWoWeA5qHhsZuW4iqukYuVy50yV/onwBpsZPKz6E5AlkfmAh4uqzuNhWMzL41iqKZpAzlWxJCG7gzBOBv01zQ3XlB6vKUDXdlvG30rXFlcbduSBR+1bv/Edn+ZsJ2wZGU+fOu2bao8eOeDH+ZwaIGUGOo7ljSRpkBIpmAOcWDfoJZyOgUz1v46MNyKdUjIODOPL/rAqX0A1u1+PDx9Jx5wTMkVczv9CcioPW9V8V9Ca8YJ/b7Dq+Rtsf6N/ZRscH5fqtNna1rOVjtnq2sCe/uo37KvPft3b2y4IXXITsEM3d+l+FtTr4a272WvXbO++2D7mRHQ1HM53RWtQXDqgrtjWxTYuH0wGnbEUzSRt4jhUX7o6Ro9T+oJ6GvFJ+lS9JKfbCNGefF+igjvqD7vO3CmNt/566ieOY/GLc+j1Vqy7tigSLmoeOG/9zoLi5bpt3WxsVRMheYGrLM7TDrvJx8bZR9mwiVbD3j72mp04/qGnj+LzGLPPik9T1y3J+HngwvmLdvie/TYzNbKhtgYsUT6U1NekvddZ0WBKMrgvVeZxkiJ8d4fNr/KRGkz68evO518bOYgBmeWzXMK70vh1R9rQKa+qk4+E45s/+DI0VI6vTLDXsIeqVd+iX3KdZeutLVlv9bp123Ir8wovWK89q3JzSr+ufDLiBm0RrmONpiqWrE34g8AyTcmbZVyEZJf55ETDLl8472nbBZuqprnDZ6/O+meGd0yPu/Qba8a3clwiIl7KYAyXRdjWJX+4I7vcP8TVCdz3eVh1b0WZSrKEz2Bn2XhvpZ4nwpWBkT7tDtzIqueLsL9wRb1iLHlEUZ2XpJtPD0JMev7yPk6WS3gdOg38gebN69LKPLPXRFNwjsrbLe/sSBrzfPrV3/2HJfedj02fM546ecrGpHKmJ4I4/qirENAHIklZyOjvGyuOgWRw88Um5lisRzpRdIwBFOWqwW6KoD2pXBR/1LXeOnYS6A/zUNkNDtRj5gX4PU0V0JgeD9mc1BEWM9R2EE81lrIx16OtOKauchOpTa+LbhANyTwgCa2aHN5WlI3DuIl6Olcx0KXw2lrHOuL6D//wn3vadsCmkpE7+vjxE7aPuaJINab5YizUBBmBDx7D4gPCQEZaLF7LKc3fbxEZCTtRKC+pxKdEGOWeS6QgAc6J4mEGOwiTJAY58NUxfrQbecMIyeNAVb4ukbNckJ4bgXA+YfFS69upkQ4yDuuszYPzBqXP1hj3acOapgcrsmZ++If/LPJvA9Sv4ueOVVmEE8Mv/Gug8sKPdMMlio+lpJZb1EqXBOUpBGp9rKm5Jta2BoY4NhFQxndqi+T+CwcNWajWlnRcllvVeC65s96iu8ZgwZ31r8vNhespnI74krdpqsNWlL/yG3ywifrVz9wJpK7KwMjXEtQvN85i76E/SdJ5MA/0sE7Q54RDxBpnOjA8ZtkrnS4ZN7HY6WuS2wn1q/G5g32BU5OT1d0/MhjAB0JSgQvvSyA6jsEU+XiD0N2U3KSONfDjCvvAi+QiarNBWknX8UDzKmspTb7vTWyJHFimZZd55VR8LFR/fZ8iaW7tc2PwywRjuikgmOpveJ1KUlq48vGBJE6RiC55FUO6k9R4LTelZX35SuCcOX8/zrTIO6zPFUHDHn3yy5TYNtj0OeOlS5dlfXb85SIfbC5+UW0VKhWYgwSRAZ+i83SpTl/2Iaz6pLdD9UqHoVb940qs3ekfqt5VnOJD/aPGS35vJ9Rh3SUyyPwSkOY3ikN9b4Rh4/BzwYHw1YLiIXYQLuep2TYGEPA2Vb5qu6amBfJjpK11BrbIM+qXvmv333+/p20X5JXbNPDKAS/vMyAgLvYnu5Fb/BlAJ2TxkVR+TBqShi/LoraRSu406MRLOqLaUedJhMoPKROSinDU6fViLJWNGoEIq+TQJeWY9zoB09VSHNTpEjLqZpNwfLqFuKrNdDdCWOGaFKx1rdMfs2e+9uK2IyLYkicw586ftzURki97sQ2K9cBUjYG+78zOY3xI4yjSApeGSUgZHNKSD3FiCsRjNpZUIp/SWZ4hrFQkqP54Ga+POpCiWO1qhjqbigfcN41y85BGT+gTYVfBzGmBS+0KUaSkCRCQF7qIc0knye6GGO2rbfJXN2msDvi5qSGs/WUZLF9+9gV7+Fdu/YmTOxHVldpEHLrnHv+l0mvXrvmuFODcYFCcACG5UnrhR1elusgsIoSveCSk5nIhaTQXk5Rsjcc7zv5bgXxar6Fjn2syx2OOqbDPI5n7cax5pX/RgvdzmHcyp0Sqqj7mpaorw/QnXoOI/qmA/PUSLlxJT0hyIlP9/Hx+qWPq8vJyqH6XriDyOWHlej4F6djSwnW7cPbuRonPBXwP8eJFPoUnC9kJFQOJqhQdigotcUIQFXmkv5JwwAmMVEGCkI6082UdpGBIT5+XlYHNRWpWgaiLsg0e45V4yqfEjaWgyAdBQPQh4HkyCxJymBZ5WYhyiGSkDUkqMqL4h5skSt9oHx9kHEtX+Ny0c/PLujY77KWXf9MeeHD7/ZDRlkjGxFp7zdZWWHbRQDFY6ZxMMZAxSNVxSI1K8rj0KXM2pAvqLaWk/1KBpBpzyr7PK5GcOEm/caxhrO5pa4zLtWbkz4gj05KYmm/iJDXdrQtLotbDXj/SUv3yNnF8z5b+KG0Qkr2p9lVApC8bKDgVyjBlkENqMhXA+S8qMKWQY33VBm3/QaNdO2dsvNW1H//or2xpcZEathW2TDLOzc3bRx+dtsNS2WD4xp6DoQrjIqVjgpQkpvtlQdh3utRJK78iMvPGkDTxeM5tbM+WxHcJqSj/uKdLyaquYZ3CaLiex8NF1dbjw6/CdTB3Rfp5eTaEFKlMH6L/9FR916SR7vMrb1jVRx94zJ586iu2d+++UtOdjy2RjKic8+fP+e+4YJcEEaFZOpBqK8hTOdJCJborE36+DobjlJCcvgSEelQMz3wpA3Ku5xKVvDnnI4/HRXgjl9K3HvYdQ255IJ2j/Cf6WOOgE02niOHixpaIqD86ARbp2bGj89aNEYhrgdRkoXtM5zfBryLIujv70XH74MMPPH27YEsk4/HjH/iTGP9Uhy51RUChSDof3HKcgDRJvmKqqqTIo+x8JN7LeX2Kd6kCIURoKOnHIgYyUT6SFOTAexrzRUmnjHNJKkS56I+34TdFEI1q4qFfpMU6ZtUO7XuaS+6erxL4GqnSMy9nAbCYo0ypO/vseSinm0xxHdXFc+mp6QP2/Vd/19O2AzadjOzYOX/+rO3ezSeTZZ1669Vguj8cyMoRi98sajUGLokaBEQYxgAjGSEGUpK8JR8GzbBuypAexwCf2Vykr3f0MTZRlPylLh14XBCntOP5KRGE87I5D9bNNboZI8GNlfHp6oT0Y3W7p7rYwtbvT9njTz9vX/rSl0oNdzY2nYxnPz6ncexJMpY54bD1uOggyejhMsAxGBouqTTCYYVKhdeIC2Lw4YpGbViH/CJpM19sOct6FaeCGa4IFyTvMYcsv9lCfJJJubwP3vfSj+p8QN4sQGo9y9faAunXyfgJqVjCtAlW2z1rtxv2zNdf8h9d3w7YdDIeO/a2HTiwzz8AxUL3RoPnF16XPcI1kspvSkVBAH5hynd+8yM/DByqT35KICeq5mUwIOad1BGLzV4/TY0QEFAeRP4AYQwKJ5NzHEIFUUHMQ6kj4+I8Ik+QnjkqVUa1kS/bTrBFbN0x/deVyHwhFVW7HLt22msNe/V3/sC/6rYdcEsy5lbxX9bHyg8d3G/7RUbGSbaDyMhgxeAl1qnOQkoQUlJOSTxN6fVWCwmDeBDNDQEGr8zRfJ3OrWOlSbdHPIObfqjm3EGUaroOjuOZeFj2PncNPik/Gx8gW6TXzySMpARpdBzpF4Wz/YS3wzmU8Kjj54F7PZaHmjIC+7aw3LZ//E8/uZ/xlz1m2/YD8y1//BcDwAUOrO8GA5s7XOIJClvH2JrFOyATIjFPTvhpsxnVN2WtsWn50zY2rjR81hHZXUP51oTSyVP/OY74Eizb93HsymHjxlhLlipPXHjXxN83oc045k28iYkow0c7vYzqwPe5r9rSn6rfHPt5hYN/PNlhakKZIHVF7nT1hf7ROH4hjE+c9Lqsa87Yr33rZS7XtsGmq2nu/GPH3rQjR+KHvpGOgXge7QOnkauvOzIQibpEQ2r6uqAsYF5kQnX7O9jK0++hvhVfJGH8hh/SkTU91LsGt8zzQrWHRKpLxvQDIhWMSl1dCOYWbtU9obqxPFstkOTiuznep6KWh9Kw9CdcTlOU3gtC8xNuK52WBHzLnnnmq/boo9vrGXV15TYJ3OUHDxzU5Bt1Kgq6QcqgV12pky+RA+lGzzqHpJIU8q/LhvSMXTshQYlnLRGphCTiGTS7pb1skbpRb6SzhJPO1x2LQ5k7+dwPIoL6zqJYv6wdU8eQkZwfEi6kY7r1+VUe58fcpVmGOqJPfPjpnkOHth0RwaZLRtDtdu306TMaqDHbsXNaFxuDgMtdpJMPhIyRHKTigrSV5HLJ4tJRfrGy+cmMkHzMKbGCeX8Fyci8UukYPqojXnHVnaCyIZnUHuVTggqlGYFAnVQFmrsxj1sfF/mcuP4MWn6Jg+xxU4Q6oF0cKwP1c8P5OZUw0xrKLGmOOLP7iH3jhRdtx44Zr2M7YUvImLh+/bpduHDFZmamNR/TIIkIIQWE+saJGtL6jiUVBroaONbwfNFaBMnHaRg0/s6MyNfXoMsOVZrKyeBxtUhZxHNU5kRNFZkkC4LmZaqI53EimlJLTI2UwnCBXuBJTewGD+mYoI/cnGnxp0uCkt7371r27frisq2utezQ0fvtu7/1/VLD9sH6q7fJ4MeIlld4mb36HLAPsLpVPWLT4KX6KioMMKBJ1iFpldclEsclf2xcQBWzJUxxMmYwcBpFnTcwPnxrWaj62PgQjnLpqmPaqOJ5BBl9ifZww357v0LdxmeYI8wZftIxFCw9pWRE4sdqQE83VFdzYOkUGVoDu3z5kl27Nqvj7YUtlYwXLlywc+fO2cF79sdaGbtUyoC58pMUScsz4btYhJQgqdqQTkiReIuwSBikHks+RVJSv8crtwKKk6+GvLSOEZnDshyXdipEW+uXZlKKBtalVd1WRP2+LzePUElG9VH9c5/lqkEsUSEhMcLoK29XrvVayi83mLRvf+e7dvTeo17PdsCWkZGfrT390Qk7cs8RXyIJxFwNMgIGLJZJkI6SKAyw8niu8sw6CZGL1QwmacR7WBJ23a4dT4N8FWmZK/ZKmN3dURbCepV+nHV62COjP1DK4+mP4pRrmAdvGPZ+RNgfU3JDOOJLGD6n5efh1K7XR/8K+dmxAwh3uriGyY6x3fsO2/dfedXTtgPqt+umgYt/5sxHrqbTolyPJEwMSqgqBkxxwScfXOcLg9zn6QaDXaSSxynsgy7P1bWOpSrjmNMWyZXOJl72HeLzb9CckENlx/5HcxVNPZLYhNMpLuM9bTCu/unYP+cXDtLhfO2nOJ2C0jCm5FiKgogszHeZFyK5ISknGQQEdaubPZB8b2es2bf5uav+aertgi2RjBcvXIyf4dih+VtNZfkgCEHCqltVetw7kRYD5Hkp1ghJk+WyDt+5WMJ1FdpIlU0Y40ZJhHkSM1TbwFU3N0e2nRIN6cnaqG4KJK5HMc+jXsikYy8b+cmDpHN424qvS3DB8yg+2878KRl5tye+bNb3Z9Pd/ow9+sSX7fnnn/f0Ox1bQsaf/uSYHT5yQHe87nBf1gmS1DcQVGosSBJ+DJ6HsYY9LAUuj3CfujR+EWasZekWkgWRJbEUhiuiTYRHHLkizEJ6CSt3WvFJFohCGPI57yAU81Kh6XdHfVoQ9Q1R5qaAeoKE1ImEj7TMvy6fwl0eTgvXF9qS3rvt/gcftW9+80WPu9OxJWR8790TtmfvDpEPesR6YqAiSA4iCD8HBXWmPAxKIaQbKvhyqG5nJHk5liRBmgCiISnw/ArjQw7V4OHQjvh53Fd5FSzkZAcPvk8ZyClL16HKc4+kgxvD64q+5TkindVctOvH0U64zEO4IiMO0CZft+3KqGlLMi6vjtlTX3nOnn32rmT8hfHhhydt585pH8CW5kAVKhKlnxIy+eppDJSImIva4SNhMFTCGIgwho1qLWStk45wvZ30+0MiQz76Rln6kGo680paMpcTu3264Es3dLJ2c/mzzur8vKwIh7/e5XRD5Ur7LlULkXEZ1xuM+Y4dPsOHZf1rL71sR4/e5+l3OupM2DTk66mVRKwGGdTjeUoTx+H4vg47ZVgC8h+WFCHys8uoeSQtapLv7bjUlSQd82/urCrMy1+a8PeW3fdwf0nadUkGxII76y4rfdHz2GBJruSTb33VwwerWO/TlWtJdzfdmJDGLG1X4NLKiWisBPh5lH7n8lUVDqw77xoyHh+OTk7wNqWug44PHYpn/NsBWyIZ3zj2vh04iCWtWRKWqbB+IJEI1QBA1GpAkBRKl9TzhWEsUD4Yii9pGRskNHfjyYukF2U5dgmDBBVJnfj1JxzM9dCdNXieOpw40QeSMsymhwznvT3Mh1fOIxBGFwre+5PtuxRc32Y9PefETDcGsvx5PNjto6KftwcferiUuPNxSzJ+HnvjTp/+2Pi62PiEpJoPkCe5dKkPCMiBrfuoSF8egZQaWhaGQ22LlDybdqJCxiBhtdit/KRLRnm+Qsz6rh21MAxXXcl+1S3/IB4yuEKQzQFxMqsj0nCU8f7IxY710l7eKITL5JakVONduaXlnu3df9iefvrLtv/AQc8zim27nzEv4GdFvZ6HHrrfFhcXNO/JuVi58PI2aivj1qX5HE0DLKXpu29Ebt9b2OK9aB371yL4fN6k8vKus+JQ8f7+tKScryPyxYkJkaZ69AdR+IQALr8ckWnxfnS8E53O54VDh+QKR7hC7TJrHupzTZzOx6cZub9RbQ6dnyt5WMcMo4eyPV2k/fvZoLwxEYHXVb9WvyB+WfWAT1PXLcn4eeGB+++z2Stz/lWtjibjQ0mhSx9kkPQYkoGBLkTQ+fi3bTAuiHciBrnys3gNEXEACcfK5/F4WV/HgyYv7POiPvEipshqbDNrsd2MuPCb/qk7yCofR9jrr55bDxe/EX/Fjc4J2bqWL/UPXSFu3BA8G6eeQmp88que/kDnq+sA+VDLPArkR5yuz1+zxYXt9wI/uCUZkySfFaP18MNETz31uC7woqTkquZDRWVJWKbaAnlH5V3lPscMZsY7ART2jRCSJk6qkJCxz1HHIpXvENdgx05wvqujeBGvKXIFMUKCQjYnoEidx75Luzj/VX6ksOrDDyMqJN3Q1SRcOMKQVEA6isj56/7+rUgd+7eCfHVB+UTGbqdha+2+iLhm7faqdVdkYPWW7IP33xoagRvh8xqzz4JPU9ctyfh5gq38Bw/utaWlBScinYWI2fH6CaQPGFwe74WRU06BwfbBR10jLSFMDDJkilcDRBx8XhdwAvCBqCnxDekHQeOruE5eESPSFa864hl5IZTieYQY7YXDkEnVHRKwRszigAvRPBcRmP7Ho0qFkYY82nRpGAYa8+C1TltWPt/c6dr01JS1Gl37fz/+v/4lt+2ELbGmEyurq/bhBx/6M+rYnRNEc6fBdCmkeJCDqRGLvyNEhQYYNmm0BKnlME4UHpI8jQQWzZkSaMCH+ZWWi9042swwaZgrcVz6Igk3Vq4ejx0TmexdZjqhMmGsRwK9jfMck1WMJgitED8pAuk6mk/z0x2xcSL72JXPOzDccO21vn3p6efs+W980+vcDtgyydjpdO2dd963vXv3OuFSzQEufC5a+4K2HwehGLjY80dOyJJ+sKKSWKrL1yiRZMzLkJBqAxUsh7R0o0RS1Odxro6lKkv60JXyvvdx1CmpNybjQvX6/FBx7tR+PNqbEglDarIk4+HBuIz7pqvgjgjVXetYTyq3JynX6awqbkkqmR8oWlX5nm7IWETHjauPE+NIeN0EGrlLV7bX78BsGRnPn78gNS0VWSQfSDICJ6CkHBKDzy675HDVlaRc71iD4+lEfOGLwZfBIlXr8y+XRPJdSoXjOKxxkcqdjkUYyrBhdmh8SE1HWHW65Y0jXB33SjhUdXEDHbvUk8yWwwgJp/OR6u3wI0uSft3OsnXaS1K5CyLmsgr0vCdciWY8T3QkIWPHjnrcatj87Hn/tbHtgi1R05Dn3fdO2MwMr5AGAYOI0RWIGGq3UpV1PyDC+DFlFNbAZ55M83ADFRckzvW6BPEAgvjaZUkblq2H3YnIklQZF2WiP56nJsUjMtc31b6awvdjqeFciI81zuiHp5Xyw7yeX/0ux94HnZ+/Q61z27f/Ufv2y9/z8nc6toSMly5ftfn5RX8HeSMygpy7xTytmo/xXDoGKUnJwIu6inPppzCIQVTAyZh1BUlBVySgyUzLwYYc8HsYX3MAny9h4DvpREDgBPK5XRDfSYvPvJW6nVB0SL1QfDwdCqmeqMgaNw1OMUHYGhk5d+KpeXzyHnvl1d8pNdzZ2BIynjx5Ri1j7UoCauRT2iU5AJSKAWEQiuTQEGgUI48G3gmgcAyoBpZqcieP1yMJ4nmy3iBqEjhaUrtyvo9Rjg9LZb2AcNYPSwnXt7rRH24QdvNAvEDJL3UdPkhfsT6PzD6qywpzDXhq5EaXjBSlDvvk+y2d5IhXnlnppsPAG2/Z8krL/u7v/wOv507HlpDxw+NnJRH5znZHk/FsPghZoRqs9BmwfMfFd0dL1UFKnjn3GxwrjPrjGTV+V/MzpI+I4oRCiLmajTqckPI97BJHAw9NSlzdSSl6HwKV9GXW6WAph9me+pivqFY3GZIu5nyJrDfDwD8oVW6EoZTEjUhKz6u6OKXFxa69+sN/ZFNT0z7dIB4D507ElpDx3PnL1l7tS02HlAExYPWuVIOVgzj0kUQ8Wy4Wd7wzzasJinMi6lhpbvDwYlN5x4Qd0/7edBnY9a5qv5oWJFmhQN3QqocxhoJo7M7J9cUgHxIv8lJPGE2kFUk/bDvbzWPOp4qLeWV8a4ebCVAPv/zKVybassx37twj637MDh66x/bu3a90TV3cWOr6eu6+fQc0R9/h7xuxGsGvs95u2BIyXr++aBcu8r70lAQKBIsLnAOg0DDMRU/U73g2PLjvpAup6GSUNPRlIeJ4hxpxyKYJiREnMPXKuVSlPNJIxxVB6jdFSkDVo8HVn0Im0iMNaeg+5FBrSbiMS9Tjo71sQ91DxAlJwkirrglkpO7hxo8CyvnvMaXUlYv08HVmkU+nJpmpjCwvRZp/GEDk5TEjG1TyV/1//w/+0P2twJaQEbz//nFfwN27Z1e5gJKSRWVDkIYuWoILXXd+oZF+8hmmtIZ9UEUypKOvTyqekeCdY9L5jWpacOL5orfCKq+IqI9/zAG9DYaUtUICEFb1Q0jKKC5JOFZ8Sg8ln47x16MQhlDxvf81FyWJp72KjG4YqQVeuWWvJnHMX7k5OGWO6TaXzHnNnFQBqqAtXU2vGdL6TUQ5BeMYP64deX/4B//E47YCW0bG+fnr9u57p+3Qof2+1ohKY+05oC7FWPgFGnU5eCFRuMuDmEiOMGBExvKD6P7agEtOSVCp6/qPEAEGoqpL7SFGhGwjwTKKw5dWAjmY2S9X68Nj8vmRXKCSjjHwIPsOsk2SPE4OwwVWuYQX/ENWeXF6TRlOQU433oZ9y5umXC/vQ0w5ctWBNEia8GulvK/+zt8vMZuPLSMj4ONPH3x40iYnp1xNsKCbcyIMgxjUuGAZxuWgMUTuQyRIp4FyGeCSETWtdIvXEjxP2eMYYaXJZ3AkQkNQIgF9qSbqTUR71cAFGFwGcHgHOSgVRIw+J+pqGmSYvuT5QFL8OMeM183DDeLSWTes4pGKfg6FjF6P+uMSkPIlLkinOpyckZY3TBA2+qkW9DcMn1d+8HsetxXYUjKCa9fm7ey5C8aGhcmp2AXDkg9DxaDgmCpmGE7EIEW38X1AUcnlOONCMoYa57jfa5c04iMfgz5U+XIQ0we61FX5VVzGA/qUyHAVF4PtlrpHFWNHbVbnQnvRD0dpy/vo5EQ9x4aIUlu0zzzSy6HAoz2s7ioXiPaokSLcUNHzyOObOpTgTQLl/cGrf68cbD7qPd8S7Nu3x+49elgXouuT6XZ7xTprfFtGpCkXjzs7nauimuNi53PtURfxPPdmTVOSST5x/tm8MZ5P40fYj9l+RlxxuQ3Nd/rgb+Dq+VWJO+8nkpD5JHFuYdeevzMfkQtpSXz0kfVDTxcgYgSCuBh6mQYgMvXVdwfRDu8oDI/lkmcOj4828GkFl/k52kpsuWRMzM0t2LlzF1118hXZ8fLcOp1fXIcGWkBicG8Tj+r1+bykS0oul4Ry9bD+eLkIKx/GC7WUeC/reZmX8Q/CRx3RKm1E/XVUfbs12C6GJIwyqNSaVFZ8WMyaKgzKb8Iofayo6PpUgWPdr5ySh7kx3eIXvG5u1gSk9bXK6hryMAAielkh6h/YK1soGW9Jxs18n+L6wqKr25PHT1hzfMI/BgUR+b2YfLXA7/4anIx+YQvhCriwQTL8ogr9OMgYj9gif5IRRP5i5JTBS6JGeP3lqvdmlJTkHOYv9YOMQ9b7ElOpP8L0iVkcHw5QWHcZ9WYZ5oVekvyqEh8SpnXvPeIa1ciYljOfc4kzjvriO+WR5vXIff+Vv+1x4LZ7B2YzsXvXTtuxc4cdOHjA5q5eseWF67a6tGid1bZ1pL67a6u21lmWCl91A4VP6XVlIcecMC5qDFRIgbzISZmkACrKd+bIMbj47MIZboxlt447wnGcKnXU5fTBPxagPtSd7CfvA31b3y8liEm+7ikC+nd2WIrqs38RI2tNFSjeSVokucq5Uz1ONDna5zUFiOiL777tTTdtA2NQ4bJTnePYZMyO9JgujE430m0lbhs1PQoG4NLFi3b69Ef+jgyPD3dMT1tjQkOvi8lPl+XOawaDOMk3HSch407/pCtSjkHGB/Jl7ng86j4NmkSWDVIjwTLNM0domCcRUjl9L1naxoBBCjIv5NXa+O64yNkoi/JBbz8XnHSD89DJ54SJ83NiQkLPBzG5HiK7JCPrn/llNYjqPPa+EqAvTG9qYaWR9+Xf/E2P2wrctmRMtFdXbWFpyU6e/NhWV3i0hbob2MwUrwSQI34OuNFiMJiET7hEYmAg59hA0ouLjc2pdHwQgxm+P0JUXo9DfUMaqcqYh0LUAOGMw7FG7+uAysE4u0FRjn0+6nXFIIOYH8oxDUAVS/p5HMtJqphS9DFBOZ8vi3SQLW44TpobUT4dcKmtY99TSRhJD5FTbYNCOre2gV841R/HzD3jnBr27W9/y+O2Arc9GRNcLD6ufvXqZZ9DfvzRR7awsMAw+cBMjHcUQukiEVKqiDAaE/+SLYMzCFXlKq7MqWIQwuVxSonIwWBp0GTtQ6RMc9KIxHxVNspmbkVL/TpXUH3qg0s9lp6cmCIfallkRTrSf2c4VBSpEk42oSIj5xlTiQyrclfN5EUVh+Sk4fX98b7SDvDzzrTwfaqic4CML774qx63FbhjyDgKLl5X88W25pML1+etNTFu58+fsbnLV0TaZd8r2WwgDZVZksLLuGQIldRosOa4XkqCsdaEEydVV8ylJPFE8hjIMrilzJq/s8Jhw8ZVljLLK0vKo3TVDzc01OKHpGB53Ml8kTpcFqqe2FChOrlzCm5ERuawTj6mKE5EVhuYKxLHW5CSnmU5yOtGa1A3UBrH5UD/VV/pUlyDpn3ta89GxBbgjiXjRuCC8krn7JXL1pI1viADaGlh3hbm5/zb4R2RdErqndcYeDIDCSAPP5+rAy/PL09BAIjHQENMrPpca3RpJp/3UZaWF2zHrgO2d98Bm5zeoXlty5YXl2zvgf126sQHSttpJ95/0zprK5ouhPr2n6hT6xAEQRhECfLE2mMQB1IRTh9CEuYVCFfZzBXdOGENNdY54w1Iuh71eF3lBgJsjMhVCV8o1xTGUVYouFmfe/YrHt4KbCsy/rzIJzNrbRbZIWcMOODFJ95ePHvmjL88PzkZAw1yoD/SVOF7v/2D2meg1wNyr0hKfvzRSbs2e81OHX9H7XVE/pCG/rEo1ck7LU6c4ntYoC9DMsrxtiTWcYTxVZhwIRk3kf8mjogJYf2mErw+SKn62ffIfJqHCqpMcSJuuTnI8/RTT3iZrcAXmoyfBtfm5vxHxvm5N56fs9mC6QGfL37kkYft3p/jA+9I6nfffkMEP2Wry/NOArjDr3v5ExZZZGM8BSJc3CfICHk8TnlFOsCcONS11LQIyNMkyrn6LmVRz5pJ+D6A8clpkVHTEI28T0NymiAyPv7Y1v3YUbnX7+JG2L17t+3csdsuX75qp0595NJuYem63XffUTt06J6S69Nh167d9qvffMm+/d1X7NEvfU1Xf1KkQGVOWaff8neo17oxF3amFEebvjEYX1H+NEV5mTIQp/8u4fsyqFgZYBsd01P/NKD8VNXiXJQVKwm3UO1OapHXJW1I5K3CXcm4hUDKvvPW63b12pydOfGhpCTz0ZBkky4hWQ2IOWxKODHHpVkeu0HiZdKwEcFa474uy/SBY4weLyuMT0xbS9LRDRt/L7ySvuDhh+53fytwl4y3CS6cO2tXZ2ftrWOvy/gXKVkBaIQ/7uobQsnQaQXpnKiQckjGICT5+FzLuJzPIWtkxPmv0BYy8lJcELiaKz/04NZ9BfcuGW8znD93zpaXlu21n/xIKnVNJHFhKHWK7QIpkWQauLpEq5ERaYjEg4weVlw8tYkykHEcI0aqe7hGWRy4S8a7+ARQ4SdOfCCLvm3vv/2ORqovcjVsAoPHl4cgaZAov/WI800lImGqaciIZAR3yXgXnxkQ8/TpU7E8dPIDWfUi2zgfZWF5SKRC4yIgRSh+qL1V5oyh2oOMGDqk18lYV9PkBXfJeBefGqdOnbZ3337X2qsrNjHWdenHc+6WVDjzSfyJpvzxUNP+Q5vMD4HU+fi4JObEFAeKFxl9GUg55MBDDz3o/lbgLhnvUPD+0IfvvWNnz523Xq+tOaKkm+g1OYV6RlrGKxypviEiSDLyCNM/K41xhAUuSUq+hx7cuh/GjInCXdxxmJycsC8/86x97evfsIcefsxW10TQjuTKYMw67MlwEcPWEYWDh062WJdMF8/GycPmkny5a6twS8m4mTu9Pw1+2fXU8YvWebucG58ZfPP1N4xtbTMzMzY9XdYRecGtSEie1CAZeRTKTh8kZtMfMYYUfeLR6gnML+u8wKep665k3EY4evSI/cZ3vm2Hjz5g15fatrjc8U+i1KUh4MmNP7EZxNc4er0V67N7vrvi6VuFu3PGbYol1ipf+6kMGRk0LdQ22+FkTcvSZveOzxl1zCJRbLULXf70U8+5v/kw+//9p1AmVda2AAAAAABJRU5ErkJggg==;" parent="WIyWlLk6GJQsqaUBKTNV-1" vertex="1">
          <mxGeometry x="1310" y="402.11" width="160" height="112.89" as="geometry" />
        </mxCell>
        <mxCell id="UtktVzxH-rWYwOBgYxzs-124" value="" style="shape=image;verticalLabelPosition=bottom;labelBackgroundColor=default;verticalAlign=top;aspect=fixed;imageAspect=0;image=data:image/png,iVBORw0KGgoAAAANSUhEUgAAAP0AAABrCAYAAAC8CoSiAAAAAXNSR0IArs4c6QAAAARnQU1BAACxjwv8YQUAAAAJcEhZcwAADsMAAA7DAcdvqGQAAC1nSURBVHhe7X35kxxFlubL+66sUyVRQhKHBAiQuFGjPoA2unvXrG3mx/3n1mbW9pe1sV1mlj2gewUIGjW6GokWPYMQ4tIFpaOuvCMic7/vvfDKVKm4hixVleRf6cnj9PCI9O8d7h4eiR4gHh4edw2Scerh4XGXwJPew+Mugye9h8ddBk96D4+7DJ70Hh53GXzr/V2MRqMhn356Tmr1JRHUgijqSiKRlHQ6Le12Wx555BGZmprCtkR8hsedAE/6uxBnz56Vixe/lFI5L/l8QTKZLLaiGiS60utCeknpdhPSaUfS6XRkx4575d5777WTPTY9POnvItCyHz/xZ5A8CcKPSjqZkFQyKakU4rwESR/hKIpIt5eC5U9KGPak0QqkVCjJY489pvs8Njc86e8SfPXVl/Lx2TMyNlqRbK4kyWRa0qmkZDMC4sPOoxokaOl7EYRpAsRPCDx+CcKEtFqhlIoV2bt3b5yjx2bFujTk0WWk1anX69JsNuFKomZ5rBnm5+fl7McfyPhoSdIZED4REz6L+J1WPtmDtU+oIkgmM5ZiPZXC9mQoqXQohXxaFhYW5Ouvv45z9disuG2WfnFxUT766AzcxUgKhRwqHCtXSoXbarW6TE1Nyu7du33D0RBBhfrWof8jIyNZyeRGJJHOSw7ufT4DYqdh3fWPVYDPvKdLXfwlcF4XFr/bDbWBL4z4O6Vlbn5JfvXLXzJrj02KNSc9W4FP/uWkpNMiuVxOctk8LEgK1iMJi0NHAymIzzQIArlxY07GxqpKfo+fjpMnj0tj6ZKUKmMgfBnKNi35bEqyaZAc1j4BF944z/9AeiRw7lkx1OXvduHug/gBYvsAMX69EckD9z2gCtpjc2JN3Xu6gkePHgHZk1IuF2HhC6h0sDiZrHYLpeBbMqVhZzzJCrl16zTI35UjR95X19/j3w8q0drCFTz3PJ5vVpVtVp85fvYkCM+fn4oXy5KA4o1FlbEKfhgeh3CAIUAy2YXSzsgnn5yNr+CxGYFfdm1w6dIl+dvfTkulktdKl05nYqKztZjxIy08K5QtM2Udo3UplfIyOTklp0+dhttfi3P0+LH420d/hc1ugr9UrIzj05IB6RMgNtfZJ2/P3Ymts1q4df4l+PswFMN6Gr8dG/o8Ni/WhPRzc3Mg/CnEkXmN3dPaQMT4Pa5UatlZuSyl9IlvbmYWLujE5KR8+OEZb/H/nZj95iu48lk85IwSnxaeDXT8LUh8+PeamvD598WI7yw+l6kkeK65/R6bF2tCelr4UjGjhE9pS3Cf8E4IlxJcpCSTrFhMu5LOJGV8fBwhwnFf0X4kwjCUTCqw8Am/QUqtPJ9tbMFjN77/mxjJ++K2MaVScIqZCjkrUWT9+R6bD0Mn/blz56RRm4OFyaOSwMLQovS5fSsQyydgPbQhSQWuo6YoHIQWn8Q/ffp0fILHD8GVK1ek01nEc+TzRzyfMdIKLDafbY998njOiNT1GKa6TOuPlN12rB4kvqUu5k/jvLQn/SbGUElPa/zJ2TPaJWduJCoLCf0dcJZmJXQ7SkfLxBi/2WxteDffWrs3RrzbbjU1hhe69ewtwbJTwkrgmMj8jbQ3BaK/A//xwffsd7Hj+ftQTAl0uxzIc+tv5rE5MNQuOw62OXzoNRmfHAXxS5LJFeBeZqEALKZ3FYsVZ9Dd5/IgYVzqtnWjnjRA+oX5JTl48AXdt56g63zhwgW5ePEirGlbZq/NYXlBcoUteo8j5VC2bilpAyZdYTZG8sWVBx54QIrFYpzL2oBlY5vKuXNnpdedl8rIJH6DsmRzCLcyCLfYch+Dz57KgCEAnzWtN8/Hk9d17bHH8+/BqHd7oYTsrw97Mj/flAPPP6Pne2w+DJX0dO0/+/i4jE1OSB6kT2VyMendQBwjO62GW3biCO5SV/GU9BB6k7PfXJdnn31GibQeYBfYiRMnpNFogbxGaBLjw7+ekkuXZ2XPnr3y6N5H5ON/OyMTE2MyNjYulfKokiOMQh3RxtGITzzxhJTLZcv0J4DPh6PtZmdn5fr163hGPcmA2OlsRvJ5hFfpUJI9uuspkD6B34K/gylbYvD5E/acOQyXz76vgHsgO0kfhCR9F/fRUtJ7bE4MlfTv/emwtGtXpDJalVy+hMpHS4+KBuunDUfa7RO7i3zZQ91KaxUWvtkFk8LBIDogRCteX1j5FuYXEd9Pya5d98VXvH347Px5Offpp0qmUgleDMnFLshUUi15o1mDEkhDcpKCG82Ux+ZyIB89GxzH++BgJZKU5+7fv/8HW0ueR4JfvXpVBzBxLB2vncM1sjrgibE2FQEOxgJJy9CK4x8yeO45kD6TRlkQdrlL8torSa8kH3zuFP4eUFoByN/u9OT61Wt+VN4mxlBJ/87hP0rY/kZKlSoqfAXEKMDaw9Krle8Lqp0kUGFZ2agUXMW3ShctNxK5omnlw74gCGV+bkmef/6Abr8d4HWPHTsqtaUFKZVHlMwkPMvuYmG7L5Q1wbHqceMlaEk4QvEendjIwxsaDh08eHD5/gfRarXkPBTN9etz8BIiIzeeZTaXQ54gOA8iyRFf8zFRLBtb4Ysz2kgKC51OFeF5pVQ47t6VQ7NAOkh6PutBUdLj+hFIH0UJWay1pVLMwavZo+d4bD4MlfR/eONf4EjOSbkyhspZgXUB6UlqkMIakmLSs6EI4HJGXc6UWilHeFY+1Ditv/yPFY+IUMFvXF/EMV242HVtNyDp2P9crVbVZeY63W4KrSnlp+D48WMg6Ndw06uSUcIzZEFsHBOewvshh0xIeFsmVnu83MbYmcRn+Xbu3Kmt7VQCQRiB3HTNcV/xyEXmqQTEs9Ds8Bz04eCfjY9HflAkUTeARY6gVNpQullpNZdQkGsyMrITz2YKIQk9E/O0BhWNI71eg88+XnaisT6eOS4hczcW5Jmn96vi89icGCrp33rrDQmbIMgILGKuBOLxrS669+yrJ+lp3R1JrOLRMrIiYkUtGomPqsxapxXOQas5/sMhEnSswSnqJrSS9kW0csL8gTwhs5QOLKaSEyTqwEVOIKwYHx/TBrUcSKyDh0AsvhfA46gsuMyyXbjwlXx4+iQIU4GVLKKicwgxj7chrXY/IAyE13JESjKNi37TPcT3RCGR3NuGdm0+J3s+JDFyU2XH0+0c3LsuI64OOhLx/sMOjkXcjutNbZmS6S1bpFKp6P0QVCSnTv4vGZ3aKSOVHVKtIAzI3Ep6wq3zOboyuvVu2JMOLt5sB9Ku17RdxWPzYqikf/fdt6Q2f06qI2OSK5RhGUkUdt/1Sa/DOZnyTytfvxKqRdfioNIxw4HKxy10ZdmQREKz0arbtVZnO42WMM6DYB1euaj7zJpxaCnd1qTQuzClYdfq6VDV2tISrtXRAS1slGTcTMLTc3ENYiSXkh4X0HvgHy+G/+JLx3kCSmRb17LGXg1DFlUgEJLdjmf8z5Z4O4Y9BFQQXbjY5UpJ8lASMzP3yOjoqF3/O3Doj6+hnIGMju2WShVuft7K7ki+EryuhQyQuPWe5QigbBcQWj326MNr3gPhsbYYKuk/+ugv8unHR2RyYgrWK+6yQ1xvpDfXXi09l5UgyhCkVglZFJe6YtkyK5/FlbVaA0RBddT9WT2Xi2ohSTWcrwTUvHkM89OrMDssmPtK8BBSxo7ksUo3kKstzVZTGnC31RvIWWMZvRZHdGfpmVr57R70uvhnuRn0XlaQvn9PbLTEDpxHgtHyR3yjLQygcNLa1cc32kbgPdk9/Tiw0fDksUMyObVdStUphCkIudSjcM/I4J43C45iLJdTFROkXmvqc9q/f58d57FpMVTSc/DMG//7v8KVzEipBEsP4qcRn5plpPsaEz4miFkpWzbqGaxIjvwW40dRIK12CzFlQx5//ClZgiXm+ayUXF5ctHWWoQP3t5AvmHVEVhxpltUyUPnEV8I1jbB8ewyl0DLwuiEsW0varYaECCOy2QLuw7rnSHq64Y7wfYm9GOSh96LCxIis9/MdpGc6P78oW7duU/d8YmJCrzEsHD36Z+T/JZTHQ1KtjkAhMzxBWfn42ZiiT4Rl4tGxS69C0sOtbwUyP3ddDh78md2fx6bGUElPvP5//1m6ncsyWh2VLLvtYOnZIEXSG1kQb8LSgPIxUUyIwaJwkeskBONWutqNBmfZKciBA98/QIfnspXcSEUXNdR1WlLuYzebrkNJsKWcrjNfG+10Wqj1IRRMDe484nuEKOyBIOnp2qdgffukp+Kye7IuydjyY7sSPy4Hr0/Saxpvs+1sl2CoEmgD2Qsv/GKoZHfgdd/909sSdAIQfxu8BijkDMfkcy99oD6RtWGQZUPIw+aRoAPvCkr18ccf1S5Ij82PoZP+iy8+l5NH/6eMjZUR+1UQ15P4OR0S6gbp0Nwa4WlpaR2N9IQrDhONcZUUJCys/PyCPPzwc7Jt2zY9Zq0wO/uN/PH1/yHbtk6j/AV4JzYHgBJ+gPQsO5fZGEnSc19ayWQhhSImEIlH696/v5j0uDcqtsXFeZmevlfuv/8B3T9s8Hrvv/9nPMcQ1n5MKkp8hkZGelcuIz09q560mm0d9PPsM08NZTCRx8ZAn21DAgfOFMrbEAPCPW4jPg2a2spMaxZ12dpslptdS7SoYESccptJF/FsF8f3IrZSQ0D4AK69dJMgxnR8pbUDB8Ekaem0wTCCZmSQi3KStCAvGwC7IWeUoVIioVHuWLjcbDakUW8jPLD7YdTg3Hmm0sN2hBHI2BwCEC6Xy8hXX31hBVgDUEG98MJBKJX75dr1a3Lt2gLCohZCIf4utOrwhnBfHSiFtrrz89qA+Iufv+AJf4dh6KQnnnzy5yBGDq70EtzDuoQgfhi2QV6Sv21k7tL17ot2wYEgywLi85wwYsVsy1KtLmMTM2ph1xqXL12CxTYvxCwyiWpxuJHeCMyQIGILO8oahU3ptBZhHes63Jbbk0l4ONm85PIFyReL2iBI0G12UDuL69ATsplonYuwNuD89S+9+Cud6PIGyT97XQcAURYWFuXq7DWEGjdk+8yMPPP0U9pw6XFnYejuvcMnZz+Wv57+f1IppqRYKumAk3Q2BxfY+sNtNpc4pofu0ULERdGYUi1ooK3Y9RoURjcvL//6d0qQtcYf//C61G5clJHRqiTTcO0pbJdY7oVgmfEXx/QolCS6DVVmyVxV5hYasI4TUqyM4r4RAqDI1gcPJQLGt1pQglB+ei96n2xzgHWdX5T77t8tMzPb45KsLfjT6xDiRlPq9Zp2AXKQ01q0K3hsHKyZ2dzz0MPyxNO/k1YnDTcSFrBdl067CcuPCg/LHcDqs3GOA03UooetmwXeARvVlhaXcG5CfvbCr24L4YlabQEWzrU3mGsMiug+LQHI0rf6tPK8B5bb7k0Hz6g3g/04jmFNh33dcPcjrNswXvbL92N8rufzObnw1QVdvx3gfbG3YHp6i7r9nLfAE/7Ox5r6yg8+uFuee+H30opG5cbcEsgE8jdqiBnriNGXEPMjhfsfIA0Rs4dQCEGnpvuajXm5ce0a4uO0/OKXr9y2ASFs0e8ipKB7r12L+OtPMGHW0UDCwsXvBSA/PRHso7sftBDvs+0iYMiu0qPy0GMZClBBYB/zxDnq6bO1H8hkU9pr4OGxlljzAJkt7b///X+SbdufknozIzfm52Rx8bo06rDgLSqAJXgANcgiCM7GpUWZvbYgi7WkTEzvld/9x7/Xt9puFzg/f9BpwPJiBWSlK28DWbiXhKeVt9h7uTUeqQtRrBuO8X7EE24BlYjzWDgqcBnYlIK1z8ELYOOhh8daYc1i+tVAK/rF55/BhT0vndacWj2EukqCnnBEHWPmojy4Z6/2AqxHIxKn7T785qsyXuXnn8oax6fisfbaFuEIy4RmHEiS5HyMUUO6iZTcWGhLeWRSxqZ2Sh4eAw4Ap+1Y7QkA6NqzwTJEeEBFwoY/KoqFuQV57mc/1/H4Hh5rgdtK+pWgEmCrPYnEwS+3o2X++3B1dlbeOvQvMlopah89BxaR9IzxGXcr6QeG8pKwKXbV0VR3m7DyCZlbaEq+MilTW++XQjYD0vPtd/MKHOm5zB4ADs7hc9Duvqgn9aWG7LjvAZmZmdHjPDyGjXVlGRu0+AEMneVlAxCeWNThvfyEUygddiWCnCvdefyvfxbXd3VdA3S+q46tCWG7AJQZqU4doccaeli3cwm6+jbIh68NMy0WCzoVl4fHWmFjMG0D4asvv1Aic+x90GSjYt1a5qOWtsh3ux3raIdV7kESELr2qhBwPonL8fxKehCcY/qZOqjyiJcd1HsAOKUWxyzU60u67uGxFvCkX4HrN64qgTmcltY76jSlDeJTCTDtdKAMtNsR8XvYBLnbGosrmRGnK4F5XthRC89VWnxHbAceT+h+/EdRdx+kp9NDl9/DYy3gSb8C/NYbTXEilZd8saqSyRRBRH4pJg1ipqzrjQ1x7IcHUdXlH+hzZ/zP/nts0La+Pt1tvzuO4KIjvS7rT5KUL7/80g7w8BgyPOkHwLft5uc56STnoMsg/s7hCfHVYE4Gwpl2+NVXLKdLui0JxUDlwBeJEil4BvwQBB4pRx52hTG9WXpCPYFVJNYDsWKg2U/qO/yXL1/WLR4ew4Yn/QA44ywttg6tjS0uW96wCW63zSDDPnQ2uilXQdAepUfBOfQEoDAS8Ao4aEdb7bSZz6y4ibH8FvIDHKPDUzgortWsaVk8PIYNT/oB/Nu//itidcbSaqOV2OB3vEzistGOhE2A/DbBhE3b5cT2ccZZVRzaj+8IfyvJcYYJ1m2CS/bdRyA9p+JK6XTXHh7Dhif9AEKOGYCZVesNshrh+8SPSGBYYhtqE1t5xuK63hdkgrNS6jlYi3wEQlvsTxjJOerOKQHVFkp6CrvxOJEnQw0Pj2HDk34AfPvNTQrpWtsHiQqOYj+IHSsBWnUluT7GvrAxjvPccUprfoOPLfFGfLPqjuiuq8/IbqEDwWG/RK1W19TDY5jwpB/AHC0riJhQVhvZCSM+iejEtvFvEMuEhsLoRgkJwrZ0QnbrD5Ady3Qd1HvQ7UZ4TirCSTvU08A1qHQ4TNfDY9jwpB8AJ9N0FplEvNkym/s9uN4XEn5QKZhi4AAdy8ulcd507Z2Fj5CnWnl7UYfj+5kn4Sy/h8cw4Uk/AL7gQyIytnct9Vx35O4jHmyjROcjNJI7wpvLz6G1MdE1HxKfqQktPMmub+VFAUKADjWHloHg5XhtD49hw5N+ABOTE8tEZ9q3+iZ9y27WXUErHy86UCHwNVlTHEZ2y8tJP3+18EEonXZH9OOXsaWntFrtOEcPj+HBk34ANs87LW8I0sVWGjJI9psVAM9iKz+28/xYdFQd4/oQx7F/PyY636Jz57Pfn9fh7EEdDutFXsXyiM6syxz4j/s9PIYNT/oBsIuNZCSM2OZmD5J+dTj3vg99Uw9uu06eqS48X51FytCBrfk6g45NG9buBFIq8YOffNuQ3X1xfrdm6+Hxk+FJP4D0smttVr9v0b+N7Abr3uuLxvRJxvQ206826Cn5SXYqAMbwTQjnBowkny9JuTyK6/Ab/cyRP0tK+HEKD49hw5N+APlCzkiu/WnOytu+1cjv+vIJLvfFvnTDRrqgA2ve6ahF54SZ7MYLOzaPPxv4+AWdysiEDt2NkD9H5lmXXeq2ThPmcffAk34AvR4sMngd9RCPY92Rmo301iPH7SS+rizLIOEJJulUBqTmN91J+gBxewA3vi3tVlPnxpdeCkpmRIqlKlx6KBv+qZYZzPtmJePhMQx40g+gUKiCsHSxSUBQjoLtTElGJmyks9lu8OgGUkdUXUfKefKpBHSATvxOPslOy5/PF2SkOinFIq6XhHJAzrzmzYTHlfjdPw+PIcOTfgCcvouvyCKUB9HjYbYcdhsPvTVSkuRIY6tuKbfxBRsTTvJpr9qKtcxDuiB/PpuT6tiUlKtTks6U9DjNV/0KZI8TuriGRhcqutPDY6jwpB8AP/k0Ojqu33fTbjiIcp1kxKOi8CUbe2y08mxpJ+FXbEsihZUulspSrY7L+Pi0fh9+dHwrrPso9hWQlykV1Qz6am6CM3AJX9tlBwKFIYGHx7DBmuoRgxN08hvx1ofOgTNIQUJafrXysZgi6IsSF8SnclDBMZxBd3xsi4xWJzR2T2YqODUvYTdlpOY4AJxplh3nYoUNiDZWgF+Mbcm2bVs1dw+PYcKTfgXuu2+XDoXttDk1dSRhSAVgxKe3fZPrD+EjtGWjP1NE9pIgmREWREpyPOaY1DhAxZ3PTRbTM28SnoN3evoNv7X+JLfH3QlP+hUg0fgBjlabjW+BCr/prhNmhCBmxJFyA7KsBEh+Jy4up1Jw5LZwYVmgEKhANI+wJ2EQ588TJZI0CsFxAh4ew4Yn/QrQyrsPUHTabZC+hdi6E/e1h1iOpM00jCQA4wN4AkyRWEzuhFYeZDfhOqe47sfrbiguUyU3/Ptkoidp/CKZFMfuQ124xkIPjyHCk34F+PGNcqms01XBHsNKk5z2yWz7Ig9T9r+bhLTSKrZMy22puekuNNAYnnnBVeAy8yWnUyR4KiWZbFIymQSuy3V214k0m824VB4ew4Mn/QqQ2EuNJSVkGmY3A8vPPncqgRQImUz1QEgSlm44XXgbVOPEXHLu6wuPhdOvE1+S0MhKssg7i/yY5kD2DFL36SzOnMMh+PPz8zjfw2O48KRfAfbVF/MlJR5Jr2SHJabbz32ZbFa/u5fNYjkDCw1R5ZChpLDdtrntLg9THpB4mdtM7BiezzjerXNyTE7f5eExbHjSrwDJza47G1Zrn6l2orPUQjJ0x5FmQVRKjmQHgWm1abGdFWdsnkGKVZwXp1QmzGs5X+3tUy+Ay9xO4XXgOKyKy5evyNtvvyvvv39CDh9+FyEEYgoPjx8IVDOPQZDsjMf5QU2NreFmk+wUIylTW1fLjGMsLudxJC3J65SEEdiluh3HUNTljwW7sS8mfbyf16AnMAiGDydOnJQLFy/J+MSEJKFQOkFHJ+D08Pih8KRfBZVKBQxjazofEC0+4vKYzIllgsckViXAY/riCKyix9m5SnztwzfSW7wfn6d52fGmZPrfwidu3LghR4+dkBRCjCw8i3p9TprNeWm2at7Se/wooJp5rMTISBVWlQ1yJCfENciRlI6ksZD0phBw3E1iRNbz43QQXB9UFpqvEp9tCRmpjIxIrVaTTz/9VE6ePCnnP/tcyuUSCB5IrT4vfB9fv6kXBnHjoYfHDwOqp8dKkJB0pUl0J5wW24jK1nsjtqZ00UnemNgq+KNF7wtBYlqr/7JoHtgP626Et9CB7QqlUllmZu4ByUMZqZRlfLQatw9w8kzzAphvsZiXK1eu6BU8PH4IrD563AQSz8huJLa4HITkuv7Zg6N1VguNQ6kUdJsew3P7JFelweMGxSkJnHCTxce1XUryFwt5KUDYUFjI52S0OipTk1MyNTUt4+OTSLfI7NWr6v5zEJGHx/cBdfXb2ojvXhw+/LacPnVCqnDzC8WituZnc5BsTl1vktFZZfarM74fJC2xksTLEhPc2gQsD92Oc5ZH51EZQBuol0CtQKXC/fyPKTZo+IHtHOKrL+i0OGKQg4csLaLc27dvl7GxMW0f8PBw8KRfBcePH5cj770tY1UjfS5fkFwuJ5kVpCeZBom7TODvEGu5t2XzJpS5sXdA0QNAduTNVE/AZqiAXqIfu/Nnw14sxZogBrdTSHxKs8lJPDoaJmzdulU9g3K57BXBXQxP+lVw9Oj7IP1hmYCVvIn0sPYZkN6RnalbVkIPkJ5YVQkgJtcU9lqn1+52dNJMEp5bObGGCJQK8uVxnD3HrmOTcvAYh56GDoTbZuvuF+VWCocD04OgEqACaHdCaTQaqsDoDUxPT+uAI4+7A570q+DYsaPy7jtvyuT4uLn3BXPxSfo0yLfS0jO9idjfJY70cM+7IHwUtEB8fsueVlwH6yI1a6+Cdbr4CSqQpFM45gEkUtjGAjvSx4n7Se06/XVCD8F2RhHc3NKXiuyjGktLNb3PLVu26NuGHIHocefBk34VnDlzRt54/TUlPWPj3ADpaen7pLeY3ll0kpG0cgR32wltnWd8Dhed2/TjlWFborCFHyEAAfkSjjb9qc03xPnxD+f2SHQqgDh/ztJj5YjbGFT5mNuu12Aadz06UK1wi/7qLBsFK6wGFLYPtFsdnT2o1bI3DDkr78zMDEKDKb13j80NT/pVcO7cOfnnV/9JxsfHlPSs9Ep6xvQZs/Tmct/s2hO6Dmo5cto2EJR8j9cNIF+nCeK3JOqFSlD3S7ifxFKSW1exwRHePAu3w4jOa2C7KiELB6iU9BBen3THclLf1+e5yI6yys/vvAPuYhpGXZCf4wEieAN1bR+YmJhURcD2Aa8INhc86VfB7Oys/Jd//M8yOlqNSU9LX5As4nptyMsY4R3pHfH7gnUl/sC22K1fBp56N2hKGIL4JH1MMN31fT8J2Kp56T/mGecLsmOHXVuVjysftiPV8rJs3KdeCcC8bGkZbmASy8Hr8NPbdpSVK4zsO3xujoFaraHPaWxsXNsH/Hz9Gxue9KuAbu0//sM/oMJHWplpzbTbLktrn9VY15GdQjItk/t7pA+40rDy3bAhnLRDefY9xOfUnAZLu3QfFCQnU/5n0vc2cAxJzjQuAxsH+R18HsMPbQ6WzS07whP0CNzyqkBRdYovhASNZkNPWFyoyUh1RNsH2GvAZ+SxMeBJvwpOnTolb7/1phQKObXytFwFxPXsq9fXayGDVt6JI8xKIVYuw3kG4VsSBg0QBjE9YunBX2J10hPc7sTlZ/E4FnS93yYA8Lo8ky4+iI9SxsdxGwlP74Dlx1GxktBGQp4H4X2ppddzDAOLy3Dl1RT/+LFO91XedrsjTz71jO73WH9YPfK4CefPX0CczSYvfm2Wc9XR8lG4NyaMpn0yaF2PxdZdTDx4PBOluy7yUD0e1+jPp+fyiI8HLC87iw19Jv2fzlricXwsjMmd6Lk4Wr+FH/HbevYRTX5AsxuwIZFz8nNu/hbcdX5uqynt1hKkLh025EFCuPFdnMMv8Aos+vIEn3YHEF4XCgPXplrRu4UuSaVT2g5SgqfksXHgSb8CRjBauCJSfviCU1zZVFfc16/oEGUWqXjzdqUn9+k69xN0byE9J7yOHc0/wgiKP91H0cOWxY3Ys353qCRs4/t1XSgeFT3n+yS+DkQ/xc0PbFIBQCJ+Z4/eRyxBpyGddgPhTl0a9SVpNJb0Kz1tKALG8/YpbuSFspjyo1BZ9quVXYvbPTYKPOlXgJW3WMzCfc+A7BRWXPZrU5xV5ZF4dKzMsHBW2QeA7c5yu0dMr8FsNZdpMM2q27z3FCzzCJJRUyoaW9dzkHJxUEh8tgUsi243Qg9icJtb7guvw2/4QRBmaKjRxTKVQMRPd7fUG6DwSz0dfp6rVZM6FMDS0oLUalAG9RoUQQMxPT+/zUbJ/rUMN5fHY33hY/pVsLCwIP/tn15FheccdvzQZFYKHJWXz+vIPJsqy7rEktpXf2s8T2hDGkjPVdUBqgRIdjxyaA+23IdBU5dhMrGPJORxBK2nrfD/+ExbdwfpfuzRvKFesN0do2XAP8bjBM/Rbaqk+tC3/Qauq4meE28gbGMsgLb84z5xbzyby5rifq19gO0dCcll83hGac37oYce1lM91h+e9N+Cs598Im+99SdU3AJIX5Yk57cDwTmBRU7nyAPptb/eGrtIKKYkDMlOS+/ITz6oJQe3OStPEMGtDthiH4A/bMQzS8vj08iDDWr2Cm//pzEeIgMHvU68SFbqfkvcdt2D5eVVxbet2bX0f90Yr6+sHsjQeSyaP++TJ+Afl/m5bS0mgvrK6ASeU5E75OGH9tgpHusOT/rvwIcffijvvPsn/Zx0uTIm6UwOxM9py73OjMu+97i/W616zDYlPUlJJoAifMJKDhKaLeMqIAxI32rCPV6a10Y0utTQK1IdKUGxUKFobqZMNEzok02VDLkWy0pw/2rbvxd6zoByAQariL4FGIPbTXCS3iOCGIYGjInwDMand0k2N4qSh/LQngfjszzWG57034MPPviLHD9+FJW5J8XyKKx+VQqlUZ0fn6PzUNP1OCO80Zz/2SqJyRV6AFgnQbiAlA1oQdCSVqMmNcTGrUZDW83L5YxMTYzCQlq3mTUAMkxgPrwWzzcF40RH/OmxyD0+hqu6H2vfjW/7+W273R5bGbiCpbgBQasN//GeeD9sG4BCYO8AX+9lW8H4lgekWt0Oox/JQ7s96TcKPOl/ABYXF+XQoT/IufOfyPjkVtl6z4NSqYzoPk5M2Q0DJZcjIVdSJLpSheskRaRE4Jj7Ltz7kK++dtogelMaIH4YhsgzJ2NjRcnq8FlHZAgtKVJ7qy7eppafSzyOx1N00/K56iBozI4d8T4H/ux63C2/vpF4EFx320hsjue3dwVsO8UIz6/9ui7BQHLlMdkyvQdKsip7dt+n53usPzzpfyAuX74sb799WLZt2yWF8giokQBRA30zrd28jiPsRRob5GLDXUkgbuMDNmLwVVrOaxdKO4j0k1m5bE4VR6Wcl1IpJWl+TIMMZYMb/hlXNQcNGXSLKgEjPeHiau0qwy47CrmgLCkd/ot1ElxDCqZ6Fv+7hfS6OlAlrHo4gmOd7r0qsJsJv9z9B/c+5Ce/cH+5YlG2zjwkleq07H5wl2Xose7wpP8esEL/5YMP5Or1BVjiqqQyKVT0BCq4vY129epVxOSzYp+jslF69vYbyUXVQOKwS46ksK/RBp0ABK/Ijh07ZN++fXLkyBEQpS75HPKIWeh+FJLVmEnGOaIbrR3YSKhHxN2HRkR2MXKKboYJ3bhs1lCoakjf9uNZeoplb2usFJqH2wIbzsxRfttHgnMfnw2Pi3hv7OpTsjOez8jI2DSs/IzkiyN4Dim5b9d2zctj/eFJ/x2Ym5uTI39+X1K5opRLqLwwkajqqOAirWZNBLHr/v2PyTffzMoXX3ym89TxaTYanIe+h5g/CZeXBBGdtiqZSGtYsHPnLnnwwQd1PD/BmXouXf4K10hLOhF33YGJSnjCkV6BbbG7T1GCY4nX5Yg4DtgB90C+nuzaeZ/s2rVL35e/ePGSzo/PfnZO2pFK850BXoNKin6By5+p5mhb4MZzcBI1C69lCoEktxher6/9/FjvZaRUmUAIdI+UylCQ8XBeln/XDk/6jQJP+lXAR3LmzEdy8fIVuPIVSaazoBesKAkVtHVU2sy2Kdn3+OPLxOQ5/OAk10+fPi2vvvrfcXgkxUJBDh78lbz44kvax78a+M26Q28e0pg+m2L7AAlHqx3/NDeRHgC57Vczy+8sPQfrdDp05zNQKnvk4Ydv7RvnSzH0Tq5cuaxtFQwxeDZJ7z7IoTyFWNUAsSmREdzi+ZtJz/ie3+EvjU7L2MRWnXSECs9e+eWLOC15GOXx2BjwpF8BWsOjR4+LpLKSyxfVgpF0TJr1GsgRyvPPPSvVajU+Y3WcP38e1vWi3HPPPbJ79+5467fj9Tf+gGu1JZ8NlYBG6Ni6KreNXCiMyYArr8Nx+aorrLsksvKzAwd1wosfCnoCn332mXzz9RVtYIwgbIHn2HlTAhGuRII7i8/Re0Z6gmmE8hZHJqRQrOgLSZl0DucXUJ6U7n9ynx+cs1HgST8Azpgze3UOLmoVVZxviLFic7bZEIRfkvt3zsgjjzwSHz1c8KMWfz1zSsrlLCxuV0fX8U8RW/pEHNNjSUlPT4LWPYj4sctQCfcSPAoXNvwUcFQildalS5egCNhD0dYGR3oALJ9ZfJQE1+ezCuB9lKtT+kYiew1SUJrJTEnSTFH+J/Y9Gufssd7wpAfoXp8+/aFOgJnJFbT1OdQ30rr6bn0q0ZXnn30G7nclPmP4CMNQXnvtNSmW+HFMWFYSXWN3wn4ikp5ENxWQ1IY1TnIZRgnZvn2XPP300yCcKYZhg6HLtWvX5Msvv4I3tKBj7Zva1WgDiq5dX5DtO+6X8YlxlAGhAsieytDNz6mCeHL/43FOHuuNO570JC1b38OQY91DOsRSLBZ0cgfG2KzIjG0rI6NqudoBSYRjkTYbddk+My2P7t27ZmQaxDvvvCsLi9elUOCcN2zQc9d0rj3X2XDGxjqUtc2v3eTkwIEXZHJyUo+8XWDbABs6v/jic4QFl+W9996Tp599XrZOT6kSSCA0SKWLEJAe9/L0E0/EZ3qsN9a+Jq8jSOYjR45KNluS8fEJncppass0rGlFFpfqcuny13rc2Ditkz0KJuxr/vrKZdmxfZs89uijt4XwxOOPPwYiM17WZjVsMUtvajmO39lYh9i92ezKCGLo3/zmd7ed8ATjdirO5557Xl75zX/QHgOWTb0QlFNFlRW8pjCwkzw2BO5Y0rNB7tixE3A3pxDjwtqAPyq4Y347LpPl9+IKks5mlFvkNVucc1gvFfOw8DNy5Ztr8v77x5a73dYa41A+uVxeG+TYt+/IQzAJIa1OBO+lK3v37pOXX34ZCm3956unx0QFQBVFomvzHgqc6CL2hwJr1NlD4LFRcEeSnkQ5eeIDmZjcgtiyf4vGH7VFJmZIDaoUrMuKlj2Tz0quUJD5hcVl4t0O3Md+dU5QsVxWDrJJCKINJXs6VQLZX1m1O269wOd28OBBHQjER8VSq2BF1637wWOD4I78NT777HPJ5CqIJzNaIWnhFYMkH4Dra2fXUoC4n2PibdLKFtzY1G2d4vlRhBNsBAsiEB2E4QC3Fv5rtEIZrU7JK6/8Vgf6bDTs3bsXzzuLZ0iyx4LtXfyfzfiv52wk3JGk//zLC5KDi27VbgArVglaI7rv/KgDReeD44wxnbrUl+Zk5p6t8ZG3B/QyJsYnELcjRg5TiN05Xj8tex95XF588UWNpTciqIiWLT2ELj6ce/yfhKX/Fm3rsS64Y917eOkw4Vb1bnbPOQ6eXWRG9Fa7o4NT2NjEySKj0F5xXVi4jlN76zLjCxsPA43de1IsVODO/1oeeWRvvHdjgt4SSW7vGWADQhJTANzqSb+RcIeSHhUvSqLypSTEMpvhAvidnYhvt3URMwdI7ZPO9mYYR6Fx/rclWPd5uXHtOsiWk5d+/Ru42jqTxW0FreaB556Rgy8ckN/+9rc67/5mAMfx69g9bYTE74C/Lm1+PKjIY2Pgjvw1RsoFWVhckGarDWvZQdqCRW+B7G2doSbkN+SCeNbXdl3ajUWp1+ZlYe6aLNYacs/2B+Sll/9OJ8pYL+zYca9+JGIzgbE7BwxpwyNYH2CZXXn0qjw2Du7IwTmM0Q+9+aY0mnX96mxWJ7GkiwnbE7c0sf+Y0zjbCzQt2KOk9nsf+NlBpDZBhsePw9tvHZarc0va7pCDp5TJFvBUU4iy2vLySz+Pj/JYb9yxI/J4W6dOfSBffH4OSoBDagO4n3A3EXBq1xzfeefXXiHT09tl//4nhuZG12oh8rr7PurIZ87vAH5y7jyedw/PoSmj1ZLs2/eoV6QbBiL/H3lPTjHGvgTGAAAAAElFTkSuQmCC;" parent="WIyWlLk6GJQsqaUBKTNV-1" vertex="1">
          <mxGeometry x="1310" y="750" width="224.63" height="95" as="geometry" />
        </mxCell>
        <mxCell id="UtktVzxH-rWYwOBgYxzs-125" value="" style="shape=image;verticalLabelPosition=bottom;labelBackgroundColor=default;verticalAlign=top;aspect=fixed;imageAspect=0;image=data:image/png,iVBORw0KGgoAAAANSUhEUgAAAGQAAAB2CAYAAAA+/DbEAAAAAXNSR0IArs4c6QAAAARnQU1BAACxjwv8YQUAAAAJcEhZcwAADsMAAA7DAcdvqGQAACVVSURBVHhe7Z2Hj2THcYd7ZzaHSyJpmEGig2jKQbAkG5AM25ABQ3D6nw0YkinZsE3ZtEhT4RLNeHfcu9mdnTz+fVVd83revtlwOt5bCa7dms7V3ZU6THhrc0H6f7gy8GspkOl0msbjcRoOh6nf76fj4+N0cnJi+d1uN81mszTnTzNn+mtrYoT+KJtMJkZjd3cv7e3tpu3t7bSzs5M2NjYM16j8BcKvtEBg9OPHj9OjR4+M4Tdu3EgzTWd9fT11hbAOBnoI860Z3HfMaROKhZ6mgDhtEWKn05GgpspzfPToUELaNUHdvHkzHRwcpK2trdz2l4NfKYH0er300UcfpaOjnmnw9vaOM7zbsfJSexcxyuczEwhgzFcipl1OH6tZyEkvFM3V1pIk1ijJljVTTavsaaxxNBqlzc2t9MILL6Rbt26ZYlwWrrxAsIB79+6ZlqKRTNKEUDAfRkV6KX8BcDBHBY0CWZMba2AFeYEQKdNkRZxuXXhSjvmaLGqWBoOhucHXXnvNrLd5bMtwJQWCj799+7ZZxPXr1813+zDnEkxXIQKhZh66mBlRsceizqQsJDGI5jHVTsfbe02Fs3mazqbETPDRjvqBlEVehPU4ArH1SeFcfYqSjVdU02g4Vh/z9Lu/+ztam/asXRNcKYHgr999911zRQgBxjE8GBQCyLwycMZVzIMZ4GS6ptCnZQxO7rKIA2tYVKditjFRLqgr19fpVh2UNCkLIA1E+zLuOLU6HROQhK0qa2ui3cG6u3JtY6052+mrX/3qYkwBV0Ygd+/eNfd0/fqNnOPMZyKnNdaKTRYuLE16Wrkc2GVMI025GINw3bqyAHJdABqmyapHV6rha4SAvG4XRipX8QDaQ+f02KDtQpQ6WTgz64MmZfS3oU3HluhpbPp74403TAGBKyGQt99+W4u0bzFjkqbFebIIxTRNFqRiQ009lyvUZNE00JiStBuikjUXs1UPpkIbqJjnU4cZFE0mY0oX+UC4y5m0nrKAqLPYRlNnQd8FoohSjFlthZ5PqCKG191I6xs7aTpZSzuaP+6sdYEgjIODfVusYboLA4TxrpUw1Lkr1sekaJyHjpZtbm5mgcEUmGpFBjs728Zsyh2ij471i/UMtUOamZUJ+ROZjY11ozsYDER3YvkGIr6mNuyoOO+Y8MnmT2XQgL4JSX26ZTBuCZytc1gM/aWuxrCX1rf207HOTK0K5M6dO9IOuQTtDn0Y+FMmo1D8xw3p3ybnWswk/OAWgFVwBqA9204AH+7h3NqBbEsrDXbGod1bWztWNjVGmUnZ+tKVC9uWn59MRs50G5+3hQ59Mi7OPwFmmSpnTNbnYKQ0iqV5mLJo7POxpoYlaizMhzJIr22mvf2bxoHW4PDwUCa7YYwPJo3lV8ca4ISJyG0x8K4WWpg8nY5lIV4vJsnkiaPFE52yyYMJAExBw2EoEG4NQWAZMHUqAdNuPJ4saJJGIJQt03XCtAsFgQ5oNHFBwp3tXTGeFYQ/lADLR7FYw+QCtYZgGey+JBET0nzWT/3ep+1ZCFvaDz/8OLsa12wsZDZn0AKbQNJk12zCMAcGaBZCH3JYBxoeTHdwl8GaxPQoB4iTD9Av7TmB466mot3VLggWbm6upx1ZzmBwonK3jkDas22Nq5k60Cd1sFZXtMoq2fhRNhVN3Nd0Kqsd4w5HEsRUZVIYq90CcO2BVjFQ47LzSesFJs0AJ4gnbaxvpLG2iezjJ2NZiRiIYGgHU9Fe4qGpgTAmFlzCsA7rI1sJTDPLCMZpDB0xZcvWBq0puS30wvWx+aA9fQbdEDI7tXWNl20taC5X/kjGJVoIa0vbahSuqzbci23KC2gOs66QOlovjVILYG5A/nlNh7qpmDCRZYBmxppYVwvqtk7mLIJg1/w6GuqaCpMI3TocR6OBhcGscDe2Q1I/tjbI4ra2xQjUVRKg/05HZSgFAuDso7LhEFojE1ogbgu6rBvluoJAyN/d3REJNB3LRjhsGqQIkgEbhK1NuTnRnMs6cMEIv6MFtNPZVO9SHtFrTSDsbPonj8Uk9t9ojSaSBhqoa1NX+YSDAYNHA9EqBu87H7QVZkMH4cCQwFg3wpLQVFwTGwiEAMMHg34aT4Y6RLIuwUQWY9994aZKqwj6WB1CAaEd6030BaAEITz9K19MlzXs7OyrP7EderLA7rpcpuiub2ylzS3tsjYPtLbI+oxKC4CbePzoA4UnqYumaMHzk/JMDJXGrWvXNO5rQkxOuyDheCKNFwNhDkyoJl4tuDAQN2Lmn13TurRwQwzAnWxtwtQoU38SAkCaOBo+lKVBG2abhYkWQgHpl7r0g+ADuWejboyFNqwTk+lAQmZnOJab7klgvt5NtCbaOKQAu3sHorenQcil2WhagOFomI6PPkmHj+5LIGix3NaM/a8mqsFxWEpzmAAjQe1sFOLfXYt97QgMRiAAtNQmnbUX6wBhqGs22pyVQJaI70cYC8TnZAjmQhchxQYCjLgLs2PlhPTjgtqyHdfu7r76xx2qTDtGdECrkIWbWKHcGx5ifUN0vNvnD0xwLpfx5NEd4b20JYvQUG0yuIzhUDsc+VvXUncN4o1pJowI5vO+R0eav8HktfuB1ZQhtBI5qePuRiOnZ9tdtBSfr78099sAAKay1vgawAZhx9qHYCgvaTMm1hVfw7TeaB0baPzDIQKiXVI5uykEjftDwbYlsB17GwFlQnhsmVsTCLsa09TZIB1+fid9LsGsa4fVkRuZiElc8nXXffvq9X1XhUaGOzFNZTcjJlCLY8tILqEuEGdqdS3DAkserszdJBrqVufa7+eScT7dUzf6DNphCbiq6Gdja1eKsS1NF8qibcuuJfJk0BM9bQQmEprc8HB4LA9xrDYz0cWVHZtVY0WtCeTo6EgCUPe2Tz9Kx4/vpYef/kxu7HNjbNJiOJfLYqJoJdtN4jC1XGjdzeDT1zXRgWu+WZUzl/q4JEImDYPdQvDxdORtg6nRH7skrIJzjgZptKBJexeap6mPdYSbHOc6KtAucU/Tc+vb3t7TyX9XLmxPNHfkeneUt2s0zCLVJ0rTmkDEbdtOrYkp2nVqD6XJDB6kwwfvp97n91UsrRezgwkx8dBU8kxbNZltCQve4vS6uC8JjAkSuvB8E+DdIgQA4Wr7LKbDNARGGSG0ERh9hlUi+KAXC3koiQlAwB3VDIWQxXL4Y1vb7yOsobmvOJ9gCbgoFAP3i0D29/ftTazWBMKijkvggg1uiiWagCYxfZyG/Y/S44e308nxx1oIJ2KCjoryyxO0WhYF09ilTeRWpNMoo9wC7gD/jcBgKMzFzfnEaYOQArEwtB8r8GsTNgc+NrXkxTYRKEBsZcMyQrjQoAyhmKDyWWNHB0A+ICHRmh/tarFOvP+inPmMMeMGO2rbV7uttL+3b22Hg+P2BAIDeAfN76Y0UNNv2/toDhLU7CgNjx+k3uGHqff44zQZ9dLOlraIO1t+l6SJbypkwZ1y8aV/W23y2oS2w2yYvLTmCEmDuLIQRm5t2orVbG3timncs/l9GQjjAafdNe0GoeVxQrbi2iaLxomsA0VAabgb25AAN2RZe7IGBLi/fyDcFUUspS/CUkjroQXY3JiLSdqdi5lYvF1Fo6Uqs/dC7KAoc059jfNJ6vc+S08OP05HvYeyFJ1dunMxTTsYHepGYgKs4pTNRSR3UVtbOnMIua2FHhpJmWN1Qxyuj5OzbzR8jaEOjEaAlAMmLDGVuyxcFswONwYiJIQGbVMA2gsn0MgWur2j3ZXGxe3yhLOVFveZ3HO3g1tucVHH6tkGukBwL8o0t6HJZ1wDbSPLNYMazLV1nBylUf+h3NkDbQweSLOeaKJTMYT1Q0wX0wAmD3PRXGeyH/BCu2Eg+TDQrzlik8BJX4urQr+P8oNnWJhbVsfogkEXBFiYERZwcLCndeGa4bVr+9qR6XQu5RjZlr6vvifqU0LVJo9hc/5pTSBMhMUNd2PhmHVBAtHCCNPcOXDtzhA9xX1UR5Nw4Wh7O+1rI/A4DU4O5X97cmsn1r4jfy3pqu1UDNJhcourlrzFlRUhAE7knBnijSt7AyoLC6ayFlEfF2PukXOCXBguEoEwfkYVVoNV8EbYtvqyDYDysEq7hBdt3jrgvRy1TBsa3zqIJ5AQbL4M2UJSLcC//OiH6f3//EetC74Q4n625GrWYdyG3/OwY/LLNzRXp3hNlHuheJ+dHRb+Wc7A8pQhytwRs9B7HU7jVs/SEggoenNxM5gRgJIjEPw/wooS68togmTAO1XOFk2+W58jFchLa1hg1Q/CMQEVfXob5bFhEY3WBPLDt34ggfyTCcR8vpAQgWxIILxxtRCKGLhmQhFTJRhnjKeZ/NzSzFy2T9wM3zihV1hAytNZEp5nbcjL1XM7Y6C3sCJejZKpscDqkkd9xalooHIr84yoXoEYby5Yscz2UiDcGjjFFsAGgFZoXGgmn8CQF1Ce3Fkum7O2EDJoC1UZDVRoa4sas85k9lue2weujXy/L9I6rrVF7shCbVczEuceLdxHVwciQ/LkHsnfUJpdq9fJIbSsPSF0Mxo9DJl+EU4D1sCEkRF5ikQ7IPZqgLDMxiGhYPYIBCEQhlDiVF3hYgJ5gkSdkOeLJypCf6Wryo/LQsvPSJ7sTgwUytJwZRYXIkTWIUePO6OzDeWuzWqMWuAy2KbExpNDxlhAWEc5t9YEAqDsYoUi/g5cWAtWMuPDbkIWfcMsKDvALRCxqgHizZbTgRa0NXu8k4WWIzAuqp5CZ5/SamNoZUWdGjg99RO8h7apVR4D7Wrg/VOvCq2aTRQknjETbU0g7GBM0xmMRsubUI5Kkp9DBMTuC0FYaNaT8xdIfacVFsT0PWyGsuysehcF6z9jpAPKshJLaw9sTSBsDVESjn8TDUQ8NmRIIGuKPJUGmQWVXZoJJmPlyjQZqwtlORGl7Y5MadDVU3RFw5F61LcGzxxKuktxMM+HueAfiEdIXmsCGdpbsxpgZnLcPfl1ivICYTR5QqtfTMhCc2+VkBwrn2yaF+ElEGjKB8+DpjY2ljy2Mr9evzWBcJPrzFXCQgbE4AIz46XxWIv5WKvLiwe+plR1LU8Z5DlmwaggGOFtKwZEHtJnJ1dpwjLa0pIx8mgKLitDlZ9kjWwuCA0tv+pz0bcg8lsTCAzWEDKjfAIMqJrUKozBZzKLdGQELc83+gW9EEwwbrk/bwNEvWbM9FEGobtEzSenF7ioW7UFVsWB1gTSPznWoBkMms2ofVI2pCV/T3ktFJq1YDU2BffBgSZsK498Jl7HZUZENMpLmk6vxKqe4zItwPI1TqzYx6t2MQdhOcdFmbA1gfDWK1OQHtpiToiymXuxeIXUszkQ8mcMYGJKZ0bYqbsGVpbr1NGFGTSqOtFuOb5Mw8HbOy4rhDHcaEfd3AdhoKpYNeJVtfYEctLn/j8mVA7KmVRNdhk5QXBVYsKSX7DJqUE5eRmeIRuEqfKJU7yMFYO9rTPSywhppzKj52GgKQ15BdbB8jVk0JQqppAh2jjNqn1rAtnZ5YMFDAy70Fg1WNfyYMoy+myqcoDAonnmUTcEQhnoULVvwqDp6dxWmQvG5bijZa2EaFNCtC3B0t7dAloTyGbH3zOIQRI27oSIa9DuuvxvGZQTdSUFsGKwu5L6rBf1vRIkrBOS1YJMgbd1Gr5WOZYCrGCJpuBUP4IyDkQ6wtYEMhxPNC9nlA9GC5pdky8zrwTcxCqoirx9SQf6gQ4q06K6WFgRhuqHOwSdTmAzVPSW4xWUQqxwWcBqa69Ow3NagMFwmKerV42I+cScKmbCpGYtiyShuyc/rxhTrcypL2G2goBmJlZQ9ksQWNFcrrOcb8EClut5Wq+eyEBeawLpHx3ZTepiEjArbwED7U/CWdZ2Xij3kDQXfzr+RbNcDr0qbulFWyotQzCsxACPV+i3tL72LQN06cdDIOicZfnWn9EOm2kB+EAbYy0nX8YXEAxcYM5vgDqtgHq+/dXIBpTtzoaK8ebyMpF6v5cB6rcmkMweez1tBcVEFI00YVlW5q+Cepn3AwOX6TTRaKpTr1cmm2gENJWRtbye2JsR7QA7KnHH4jHYEEqkCfmrg+XnOkoJnckBy+UXh2hTtn0aOme5p/OgNYHwLh1zXRyaMhAHy/xgcKBDdhNz3vfjawyaSmAG6hpzMs0FFkKu6NGuwnBBgMcjXbgqvbKSxGoS4yu373WIOnUgB7LV6J8z8IFjwAaXB2mDahgssCr/PAi6ASWdiD8NbaPbQKsO9XpNEHXA1gTCJ0nCBBhvOegY3Fmaplo5PN02YBGPYEU9INL1fIemvIvBqrWReGCZbk0g9oHlGKyCy/jdmASgaXhY5F0Gnrbds4IQREBrAjk5OdJA5H0ZjE52tsjbwDitc8/lvjwgBs7aMlvrGM7tUytVnVh3Avn4iMUXfp+6hBEvsYJgUHMbQgfLVV1wFZTMrkPMqYTlkTxPYCIKOPytAreaXEvM93gFMZf6pOppW9ezBVJUK17Aecx7llDSIx7YnkDEIA1hMTDfDQXTPM9D8ip0wdTrLMNZ7u8yrhFY9COMHRV4utdmqBRhuUXkl+Mh3opA4tPkzGppQKDSZV4JVma1fnWgLgjSq4RDfisC8UFNTQJ+u8p6gMXg609PoISlVP7Uga8Ty/UcmKhjnQ4QeWXZIm5ECzQaFOQ4oeUrpfxV60gwu0nJ6nn03YpAJrIOv5vzSfrAmKRDMKXUnGYo8muTqya7nP8sIcsjh5frpz4n0q0JhI7rb0Y1aVCULwGzL7FgRBONy8LFabgC8TElgKH4x7wrtPxijnVoKmttDWGLCsAAsBzUWUzJrQpsrt/EgGcNrs/O/PKq5TJQjpN4KwKx7+3JQi6mjT7gxcAVLjM7BFNiCZcXzFnjWi4paKugNFy3GK9xNmZLy3NqRSB8T4/fIryIPGB+CCAu9U4zzPO9WlnmUy4FuCzMZlhVJ+8hDKHrrPS6vJblIGSoFe9oNiPCyOWaV2suS0O2+LlWQrmhT/o8aGam561kdB7DxSz22QI9ltiKQLgy4bO9TQwgr0QThCHxjCWgXQWjaRPpugCMXgM01a+3DViVfxZEv01tsST7YhFxYSsC4XvgTaxZCKGA+LJmGHMTU0/nkS7xbGiiuarZ5cVxtqDrfbe0hvDdcZa8SptXgwvDBdPEpdNrRHXvVeJpZgDkNeVbV+WCICgX7KY2JdTLy3TZJ9elTt/zWhGInUHO0DUYH6hUDlfAop7DWXUrmudDnaElLJh5Rp2LAjQC4UtrAoEvDOI8BlFan/hSGxXVy8+CM2kJLkProsIFGuvW+mpNIPZr0BoLgwT5xKJ/5/ziEBMkqE+2cfJXEBAHClBiKwLhHCK2eeIc0DBzLDNa/5Uv9zepFmUZQssvIxi7WysWCc4FnMADl3XZIfq5DDCmpbEqbtd6xNsSiC/o1eBKPA/Kehep/0XCs+g/LMPiwlYEMpDLKhnbBFVZM/Pr6cWkigleBKJu0Kv3uwrq/dfhvPI62DiErQgE8AH7oJsYSB51As+DqHORus8DVikF+avmy31WKwLhl3ZgHMNyl+1+lM9aB0MZWvOeI5c3TKoujFWTL8Ha0L+CEsu16zwaTw0iy4dH7Zu6mldruywmWDFeoGhcpQTCpEW8AVbl/zJQ0vwi6DcCws7Y2g+YscsKZpfID8AEkC6h0tJKmGXbs+BcSzmjCDiP/kVgVf912i25LH7Vs7o2WTCV/xyvD7Se/rUDTY+tdisCOTnh9wadyfaLbwzD/CgffJOgirPFQjig3Bo/6WSjNwxAsCVeDELIHlTtIv8LB5uG+s13ZfYThBZ7zsD7IT7pGjKuBcMLiCoLqGfQsMRnB08jnDPdYw2iLiGXoq0IpD7JSlObJ9+U/zSMunJQCMOhJZfFD17C0MASyvyyvJ6uoFrkA8o2EZ5utxououHUWYUl1NMBVjdCoV+4tiQQ+9UdQmEwa4lhEScQqtTTS2DTEUZZrtxY9zRE68DnASGchZAQBAJRlJCfpG1nDZm4NtgiXQM7KDJEW8AzLp1RyGIKFcaHHypcDdDwVjqIKWKbiAu0expYMH4FxAwYB/jgwcOW1hB+vlPzDyZbHvEsoDKvCaLdqvKrBuGWzgLmYr+sndPPFUb2owGZofAU5mIF+X2RktnnMf2c4iVabUKMYZVgyOcJ0s9dIJPJJB0fHxnzjVkIQRZTCgMomWj1Cvx1BXujLsefG9y7dy/xBE0EEHebMDmEoVdDlokyDDSnewrsatKjDUATv8B09DXjCgE/P2sfjWpBIP/6rz+yH683Tee/QePJi/x6eVP9LxLO8/3PBNQF217guQqEO6zPHz5cCATWEpbrRiBQxp8HBPPLPi/a/2XHGX156HGe2PBcBcLjgei6fFZHMH0VAhH+slCnV6d7mX6oG/i0sBCKEKXkeSTPVSD9fl/C4CFdm4knM6+bULCWwkJY4CNOI4V+76gXO5uQWYBmk+/mHFR/NVCxxGcDq4QS+avLc6gJmpcAJaVnN7IG4L2P//mf99OjRw/TbDpO9+/fTbPJ1IUh5sfTbTY2qod12Q/js8AxQG5Ac9zSxSQN+SOLl/ysELRsUW75jhbPZR66Pp7O9xAo4wFNeQF1di6sQGGJrBkgv4o01c5zrMNy73jwxVgIHd69ezf96Ec/TO+881+m2F+6dU377JR2t/OzmnhQCyFuSyHM9O+dKxrWkAEGrGKSplfpuvLp+1nBWYxfBWeNtQ5e5oiy8eCwZ2ohDx48SHfu3DGXxLPDebYrz/UbDfvpqPcoff75Z+no6CSNR2g+D2rhPQC3Cn+Qo7Sbh3YxOK6i0fYCY7KBgIXmypSX/Mk5coLL9TIutbHwbAuJMKCePgtKthJvQrcQbXn5VvJsno77o19eIL1eL73//k/t6TAH+wd+2hRTJ5OhCWI0PNLuipN5R+EgfXD/Qwlpw6yhm4XAw7xMIFpPlHQBaPKEZk05HiFAPBhkjLV0DskLAXoFXpfa6jWHkV4dAmX8IlCyNQQAIIRIg+ys+O167lt7UtanEgin7du3b6eHDx6mPQlhd49n/kk7RZwnXPLI6vHoJE3svfOUNrd2tEZsp+Ojw3T75z/V4j5I65vXUofFHYuQx1pnDWGhl7aXzHes8koEPFwu4xAY8ahTT+u1ll4dAmX8IlCyNZhfxivESvypQr3eJR8s+cknn6S33norvffee8agl195JV27dqD4XIv3cRrxEN7RkzQePNHC3Ze1bKbr115KOzs37YTMc8q7a1rAho9V70gUxRR7oJfQQg1YWl6iVF3oa4wjJ23VY0CXZNLTwmWFcTagCChQ4Iato9we8PTqcy3k8PAw/fznPzcB8LxWHg/HAPnivz9ybiIfyEOARxICT7nk5187/tD2rT1RkKsajtLh44fpyZPPUu/Rp+nwgdaSwSQd3PxN0fySrIsHM3I2UW1ZTFgGAw7rAAH6Dow0JWU+Z94yDUbdKl7pYr1OGQJl/DJQstaswcJq42F5Qh4beDIYpsHJYLVA3n33XVsfEAJPtnSG8JwPngnFwxSnJoj5TMKY8iVOhDIxIezsXkvdjR11xs3usVzV4zToH6ej/mF68vkDCeVRetw7SlNZxc0vvZquXf+NxGOvN9ZlJxv4erbELggWeBjCmgIQL5lmmOORp5eldKBSFOXQy4Gq3ONVCGuW6wKwVrkUNUPBURODpV0QRP39GxcGfByOtKAf64zGpoaqTbC9s5t+8+WXzSXRmEeY8gD3iRbmqRbs2eQkzSfHWqiPlK+4etrdv5UODl7UerBrHQ1OnqSTvhgvS0JYM609fPuW32MHJqJnP9O0Nkv9QV8mywMeGZKEIGHZj5xhJWbaCCUsByZFCGPcjS1C45SXWXmRrkLFcnmkT0NVBg+NjxreYltOWQNGXftepBpwiWoXqWaV5MlFzXmKkHgwWxMPZ+LFOH39639IrWbodFSJnRKLswlh5K5pijD6aSpBTLRucKjZ2NxJBzdeTFt71zUIniE7TP3jntaUExMGT7k096a6dhAS422Qna30l9/9m/T3f/8PWmv20+MnvTQcUh/tYUYSCusL+3OzGtYZhIKwYnIwDeGUSD7g5SVEWT0EzioDPB0IlGlh/s1HlKn6/ccK58rXkTjJqSfJII21mI9HE815kG7c5EHF+6sFwlYVIZgrEk61c+L5rTxMlx2UlYv4ntaAg+uyCu2k2FOfDI5N61lPZnMsQsLgEadC2kw0iqmsYDxdS9/5i++lr/3+H9izY7/3ve+l3/7t39Ja09Nac5wGQ61RCIYhrq1rRL6oIxjTNGN8jgtgVoVeVheSM9Tr1sN6njMQi1Oa9oyjUv3M8DItLAA6WIhh0FIde+wRJ3Mp7Sg/Z5218xvf+Ia3W7WGvP/Td9SJH+/nuJqZLMOe6Sr5SrqbPEF/76Y9OR8CfIB6PJRFaD2x7S+uSUJBCEPlnxxrDdGaxLr0pHeS/vAb30nf/au/9s4KuH//g/T9H7wlK5ukmzdv2OOt7ZDJeUXoDKuGbMxkD0e+xQk0wwxWbrwSSyzujKuHQJlnipDjzRD5JfuW69pPn6sYQdhTfISDE62p/Z7y5raZ4Sz2J9/6pjY1WjwFKwXy3k/+zRjLT2DgchKLtzRefiPt7n5Ja8x1KSwP+eUkjvVoh2X1EZ7qogWmCSdpqPXh+EjY04m9P0x/8MffTt/+zp/lnk4D1/Rvv/12eve9n6mPTrolwVw70A5PlhRCWWZUFoiAsNwA5MhSuaGllut4UKdd1DEgHuiscxYGG90S7GutUlzKJhMJwnZRvfTaay+nr3zlK+ZyueeLJ0sHrBTIT378z2Isv7jA5Rc+f6YD3r62szdFRFah8bAuoP2sEwjPnrhsluHrBg+PZz3ho6P9Yy3gw3n6k+/8ZXrjjd/zTs4BBPPOO/+d7tz9AKNML714y5/GXDCtKczRWl69jVtMla7XqbbaDhXTfZeUU3phcaa9uSSxk4/0TKXIHIzxHCjkK6++nH7r9dcX9FfBSoG88+//5GuAmMzhZffgug5417UN3RJzeE75SRppsZ8hDFsrJBBbtLkKQIgSBgLRgLh2n0476Vvf/q405LXcw+Xgs88+Sz9++520f3AgU5eVsNvKZeZD80Q5t/Dn8czQzOiK2bCPMNKUueXRxt6rMUsMgfgWlVM1j4hVxJiOIHBD/jxFWQIoJcKtD+WaDg5205tvvmmPA78orBTIf/3H91WqZXt9Wy7qup0vGB+M9+eQs5awVrjQTAgWIhBfe8aKU68vN/Xyq7+jycrFqTvbZTEh1WHy1IERMZSIk+RKBkbBDPzsp59+pnOOdiMIpGBoOY21TrVeNKHVqeerOeOjPxckC7FD9RQ33LeP254Bn+c+keKxVgIvvfSiXNKXT7mii8JKgdy//zO9cjBb1wTFFA3P58KAvEkMkpErRo1FPuDVXZvI4r4GYbG2hFDM0UKA1upAc7WGxC0bxqiO3wywsSCT6wa3EspzTwJroKASCIM2F5cFaDXJY7dG1ISnCD9ZbhH/Uio//+EuW2PP80X7J3LFCAxh3LhxXQJ4SeGNpxZAHVYK5OOP7tkAjWd6ccbDdE8Di6ZWLtR8vK7n+/SsOOeLsWgbecZ5hbxYxUwrWkWyAGgYs8wy3U04bYRW1Qkazl8XTFhUoLk2lQe64N16ORcAX5Z7xd1wXYR1xmcBvkhYKZBPJBCKuPBCq81P56plk4gTajqK2D85ETEwMdg/duQuhmKm5yGcIR4T9hLZV2aCGKqzCLsXAGHgOpCrPTfXXAgozaYfE5YiamtCUBtbE4w8tESNY4yVYWVuGSO5nte/8kp69dVXLO95w0qBfHj/FxogCzbuwmZo7FmqTvYiTVlovefxSjn8rPfi7ShwhhmTLHSI+JwrCtjHoqs/7yGDSEDGHo2nAoSCb+dhx6xLKBK7Ha/nAyAc6TDGzoddG7m25imfe7Ovfe1NO/+0BSsFcvcXP9Hg8fPSUFVxJrtAogELoTf3HGNWFIp5MNPtQUw1TbSY07B2nu+gslynAqVsncj9qAh6uaX1ZaPRvwlEwvUHFbNecdKPRZjFl1ZYwdR2fWvzUfq7v/0by7tKsFIgt3/6tpgwdWGg+fbRjmBkxRhnjWtv0gbALwLzHj5vHcMlYGW2CxPHoGMUS/4Ddv8jqoW1AFbfsk7nu0A0HrVhHSbP1xqEIcx9chXDIe3ouJde/o3r6Vvf/GamcnVgpUB+8d6/ZOaLAfzbdYRrMYDmslNZMyGwQ+maRVBOM8IF44W2Y0GwwuiS11UCaQKcpg2mAKcPWdyZ+sZM1xA8FiNkLZFAENBYwuDTHf1+L333z//U3la4anCGhfzYmMqW197X7miradrvDIlGxgxjCsiCqhC+57xcy/iItYVdAcQuKhCjZ3WbBEKfIRAvxzLcQnBT7sI4rA4HJ+mlFw7S17/+R1bvqsFKgXz8v7/wiIRgE1aU0J4/yyyVoZTl6cXrLkg5U2C/QXySTUHJTnJPC4QMrMzbkLJ6Sld1yXFLJEoI2hqCEHSm8B2XLEKHtokt8EN7A+xrb76Rbt26ZVSuIqwUyAd3388xZ0ZTWIdV+auA2qcEIggth+lYFHSjrtW3hP7JF85kVbOpDmtqh0viapubA97Df+HWjfT6619OBwcHC+u+yrBSIPduv5djq6HedAWpJajXqAvEaCzcFlbAokA7F4oLAqtdk0vyNYKtLm/08EUgPnDx4gs37friMndIVwNS+j9vo+9KDul08wAAAABJRU5ErkJggg==;" parent="WIyWlLk6GJQsqaUBKTNV-1" vertex="1">
          <mxGeometry x="1310" y="636.53" width="100" height="118.01" as="geometry" />
        </mxCell>
        <mxCell id="UtktVzxH-rWYwOBgYxzs-128" value="" style="shape=partialRectangle;whiteSpace=wrap;html=1;bottom=1;right=1;left=1;top=0;fillColor=none;routingCenterX=-0.5;rotation=-90;" parent="WIyWlLk6GJQsqaUBKTNV-1" vertex="1">
          <mxGeometry x="287.92" y="393.47" width="120.72" height="10.35" as="geometry" />
        </mxCell>
        <mxCell id="UtktVzxH-rWYwOBgYxzs-130" value="&lt;div&gt;&lt;span style=&quot;background-color: initial;&quot;&gt;+5V&lt;/span&gt;&lt;br&gt;&lt;/div&gt;" style="rounded=1;whiteSpace=wrap;html=1;fontSize=12;glass=0;strokeWidth=1;shadow=0;" parent="WIyWlLk6GJQsqaUBKTNV-1" vertex="1">
          <mxGeometry x="260" y="440" width="80" height="40" as="geometry" />
        </mxCell>
        <mxCell id="OMxuzd_fex3Mlg6VXER2-12" value="" style="endArrow=classic;html=1;rounded=0;" edge="1" parent="WIyWlLk6GJQsqaUBKTNV-1">
          <mxGeometry width="50" height="50" relative="1" as="geometry">
            <mxPoint x="430" y="470" as="sourcePoint" />
            <mxPoint x="430" y="420" as="targetPoint" />
          </mxGeometry>
        </mxCell>
        <mxCell id="OMxuzd_fex3Mlg6VXER2-13" value="" style="endArrow=classic;html=1;rounded=0;" edge="1" parent="WIyWlLk6GJQsqaUBKTNV-1">
          <mxGeometry width="50" height="50" relative="1" as="geometry">
            <mxPoint x="450" y="420" as="sourcePoint" />
            <mxPoint x="450" y="470" as="targetPoint" />
          </mxGeometry>
        </mxCell>
        <mxCell id="OMxuzd_fex3Mlg6VXER2-18" value="VBAT~ 5V&lt;div&gt;(directly from USB)&lt;/div&gt;" style="rounded=1;whiteSpace=wrap;html=1;fontSize=12;glass=0;strokeWidth=1;shadow=0;" vertex="1" parent="WIyWlLk6GJQsqaUBKTNV-1">
          <mxGeometry x="502.5" y="280" width="97.5" height="49" as="geometry" />
        </mxCell>
        <mxCell id="OMxuzd_fex3Mlg6VXER2-22" value="" style="shape=partialRectangle;whiteSpace=wrap;html=1;bottom=1;right=1;left=1;top=0;fillColor=none;routingCenterX=-0.5;rotation=90;" vertex="1" parent="WIyWlLk6GJQsqaUBKTNV-1">
          <mxGeometry x="407.28" y="392.37" width="180" height="10.35" as="geometry" />
        </mxCell>
        <mxCell id="OMxuzd_fex3Mlg6VXER2-23" style="edgeStyle=orthogonalEdgeStyle;rounded=0;orthogonalLoop=1;jettySize=auto;html=1;exitX=0.5;exitY=1;exitDx=0;exitDy=0;" edge="1" parent="WIyWlLk6GJQsqaUBKTNV-1">
          <mxGeometry relative="1" as="geometry">
            <mxPoint x="557.5" y="512" as="sourcePoint" />
            <mxPoint x="557.5" y="512" as="targetPoint" />
          </mxGeometry>
        </mxCell>
        <mxCell id="OMxuzd_fex3Mlg6VXER2-24" value="" style="endArrow=classic;html=1;rounded=0;entryX=0;entryY=0.5;entryDx=0;entryDy=0;" edge="1" parent="WIyWlLk6GJQsqaUBKTNV-1">
          <mxGeometry width="50" height="50" relative="1" as="geometry">
            <mxPoint x="490" y="392" as="sourcePoint" />
            <mxPoint x="505" y="391.93000000000006" as="targetPoint" />
          </mxGeometry>
        </mxCell>
        <mxCell id="OMxuzd_fex3Mlg6VXER2-26" value="VBAT~4.2V-5V&lt;div&gt;(From li-Ion)&lt;/div&gt;" style="rounded=1;whiteSpace=wrap;html=1;" vertex="1" parent="WIyWlLk6GJQsqaUBKTNV-1">
          <mxGeometry x="505" y="460" width="95" height="47.84" as="geometry" />
        </mxCell>
        <mxCell id="OMxuzd_fex3Mlg6VXER2-27" value="~5V&lt;br&gt;(&lt;span style=&quot;background-color: initial;&quot;&gt;directly from Solar Panel)&lt;/span&gt;" style="rounded=1;whiteSpace=wrap;html=1;" vertex="1" parent="WIyWlLk6GJQsqaUBKTNV-1">
          <mxGeometry x="503.75" y="369.85" width="95" height="50" as="geometry" />
        </mxCell>
        <mxCell id="OMxuzd_fex3Mlg6VXER2-32" value="" style="strokeWidth=2;html=1;shape=mxgraph.flowchart.annotation_2;align=left;labelPosition=right;pointerEvents=1;rotation=-180;" vertex="1" parent="WIyWlLk6GJQsqaUBKTNV-1">
          <mxGeometry x="598.75" y="310.09999999999997" width="30" height="169.9" as="geometry" />
        </mxCell>
        <mxCell id="OMxuzd_fex3Mlg6VXER2-33" value="" style="line;strokeWidth=2;html=1;" vertex="1" parent="WIyWlLk6GJQsqaUBKTNV-1">
          <mxGeometry x="612.5" y="390.05" width="10" height="10" as="geometry" />
        </mxCell>
        <mxCell id="OMxuzd_fex3Mlg6VXER2-34" value="" style="strokeWidth=2;html=1;shape=mxgraph.flowchart.annotation_1;align=left;pointerEvents=1;" vertex="1" parent="WIyWlLk6GJQsqaUBKTNV-1">
          <mxGeometry x="628.75" y="335" width="10" height="130" as="geometry" />
        </mxCell>
      </root>
    </mxGraphModel>
  </diagram>
</mxfile>
